G04 #@! TF.GenerationSoftware,KiCad,Pcbnew,(5.1.5)-3*
G04 #@! TF.CreationDate,2020-09-30T18:54:31+10:00*
G04 #@! TF.ProjectId,Onion_Feather,4f6e696f-6e5f-4466-9561-746865722e6b,rev?*
G04 #@! TF.SameCoordinates,Original*
G04 #@! TF.FileFunction,Profile,NP*
%FSLAX46Y46*%
G04 Gerber Fmt 4.6, Leading zero omitted, Abs format (unit mm)*
G04 Created by KiCad (PCBNEW (5.1.5)-3) date 2020-09-30 18:54:31*
%MOMM*%
%LPD*%
G04 APERTURE LIST*
%ADD10C,0.050000*%
%ADD11C,0.100000*%
G04 APERTURE END LIST*
D10*
X116840000Y-63500000D02*
X116850500Y-68640000D01*
X111760000Y-111760000D02*
G75*
G03X111760000Y-111760000I-1270000J0D01*
G01*
X111760000Y-86360000D02*
G75*
G03X111760000Y-86360000I-1270000J0D01*
G01*
X107950000Y-86360000D02*
G75*
G02X110490000Y-83820000I2540000J0D01*
G01*
X110490000Y-114300000D02*
G75*
G02X107950000Y-111760000I0J2540000D01*
G01*
X167640000Y-111760000D02*
G75*
G02X165100000Y-114300000I-2540000J0D01*
G01*
X165100000Y-60960000D02*
G75*
G02X167640000Y-63500000I0J-2540000D01*
G01*
X116840000Y-63500000D02*
G75*
G02X119380000Y-60960000I2540000J0D01*
G01*
X110490000Y-114300000D02*
X116840000Y-114300000D01*
X107950000Y-86360000D02*
X107950000Y-111760000D01*
X116840000Y-83820000D02*
X110490000Y-83820000D01*
X165100000Y-60960000D02*
X119380000Y-60960000D01*
X167640000Y-111760000D02*
X167640000Y-63500000D01*
X116840000Y-114300000D02*
X165100000Y-114300000D01*
X116850500Y-76140000D02*
X116840000Y-83820000D01*
D11*
X116850500Y-68640000D02*
X116850500Y-69590000D01*
X118425500Y-69590000D02*
X116850500Y-69590000D01*
X118425500Y-70440000D02*
X116850500Y-70440000D01*
X116850500Y-70440000D02*
X116850500Y-74340000D01*
X118425500Y-74340000D02*
X116850500Y-74340000D01*
X118425500Y-75190000D02*
X116850500Y-75190000D01*
X116850500Y-75190000D02*
X116850500Y-76140000D01*
X118425500Y-70440000D02*
G75*
G03X118425500Y-69590000I0J425000D01*
G01*
X118425500Y-75190000D02*
G75*
G03X118425500Y-74340000I0J425000D01*
G01*
M02*
