G04 #@! TF.GenerationSoftware,KiCad,Pcbnew,(5.1.5)-3*
G04 #@! TF.CreationDate,2020-04-21T19:07:54+10:00*
G04 #@! TF.ProjectId,Onion_Feather,4f6e696f-6e5f-4466-9561-746865722e6b,rev?*
G04 #@! TF.SameCoordinates,Original*
G04 #@! TF.FileFunction,Legend,Bot*
G04 #@! TF.FilePolarity,Positive*
%FSLAX46Y46*%
G04 Gerber Fmt 4.6, Leading zero omitted, Abs format (unit mm)*
G04 Created by KiCad (PCBNEW (5.1.5)-3) date 2020-04-21 19:07:54*
%MOMM*%
%LPD*%
G04 APERTURE LIST*
%ADD10C,0.150000*%
%ADD11C,0.010000*%
%ADD12C,0.120000*%
%ADD13C,0.200000*%
G04 APERTURE END LIST*
D10*
X162169523Y-92227380D02*
X161979047Y-92227380D01*
X161883809Y-92275000D01*
X161788571Y-92370238D01*
X161740952Y-92560714D01*
X161740952Y-92894047D01*
X161788571Y-93084523D01*
X161883809Y-93179761D01*
X161979047Y-93227380D01*
X162169523Y-93227380D01*
X162264761Y-93179761D01*
X162360000Y-93084523D01*
X162407619Y-92894047D01*
X162407619Y-92560714D01*
X162360000Y-92370238D01*
X162264761Y-92275000D01*
X162169523Y-92227380D01*
X161312380Y-92560714D02*
X161312380Y-93227380D01*
X161312380Y-92655952D02*
X161264761Y-92608333D01*
X161169523Y-92560714D01*
X161026666Y-92560714D01*
X160931428Y-92608333D01*
X160883809Y-92703571D01*
X160883809Y-93227380D01*
X160407619Y-93227380D02*
X160407619Y-92560714D01*
X160407619Y-92227380D02*
X160455238Y-92275000D01*
X160407619Y-92322619D01*
X160360000Y-92275000D01*
X160407619Y-92227380D01*
X160407619Y-92322619D01*
X159788571Y-93227380D02*
X159883809Y-93179761D01*
X159931428Y-93132142D01*
X159979047Y-93036904D01*
X159979047Y-92751190D01*
X159931428Y-92655952D01*
X159883809Y-92608333D01*
X159788571Y-92560714D01*
X159645714Y-92560714D01*
X159550476Y-92608333D01*
X159502857Y-92655952D01*
X159455238Y-92751190D01*
X159455238Y-93036904D01*
X159502857Y-93132142D01*
X159550476Y-93179761D01*
X159645714Y-93227380D01*
X159788571Y-93227380D01*
X159026666Y-92560714D02*
X159026666Y-93227380D01*
X159026666Y-92655952D02*
X158979047Y-92608333D01*
X158883809Y-92560714D01*
X158740952Y-92560714D01*
X158645714Y-92608333D01*
X158598095Y-92703571D01*
X158598095Y-93227380D01*
X158121904Y-92846428D02*
X157360000Y-92846428D01*
X156693333Y-92227380D02*
X156502857Y-92227380D01*
X156407619Y-92275000D01*
X156312380Y-92370238D01*
X156264761Y-92560714D01*
X156264761Y-92894047D01*
X156312380Y-93084523D01*
X156407619Y-93179761D01*
X156502857Y-93227380D01*
X156693333Y-93227380D01*
X156788571Y-93179761D01*
X156883809Y-93084523D01*
X156931428Y-92894047D01*
X156931428Y-92560714D01*
X156883809Y-92370238D01*
X156788571Y-92275000D01*
X156693333Y-92227380D01*
X155836190Y-93227380D02*
X155836190Y-92560714D01*
X155836190Y-92655952D02*
X155788571Y-92608333D01*
X155693333Y-92560714D01*
X155550476Y-92560714D01*
X155455238Y-92608333D01*
X155407619Y-92703571D01*
X155407619Y-93227380D01*
X155407619Y-92703571D02*
X155360000Y-92608333D01*
X155264761Y-92560714D01*
X155121904Y-92560714D01*
X155026666Y-92608333D01*
X154979047Y-92703571D01*
X154979047Y-93227380D01*
X154121904Y-93179761D02*
X154217142Y-93227380D01*
X154407619Y-93227380D01*
X154502857Y-93179761D01*
X154550476Y-93084523D01*
X154550476Y-92703571D01*
X154502857Y-92608333D01*
X154407619Y-92560714D01*
X154217142Y-92560714D01*
X154121904Y-92608333D01*
X154074285Y-92703571D01*
X154074285Y-92798809D01*
X154550476Y-92894047D01*
X153217142Y-92560714D02*
X153217142Y-93370238D01*
X153264761Y-93465476D01*
X153312380Y-93513095D01*
X153407619Y-93560714D01*
X153550476Y-93560714D01*
X153645714Y-93513095D01*
X153217142Y-93179761D02*
X153312380Y-93227380D01*
X153502857Y-93227380D01*
X153598095Y-93179761D01*
X153645714Y-93132142D01*
X153693333Y-93036904D01*
X153693333Y-92751190D01*
X153645714Y-92655952D01*
X153598095Y-92608333D01*
X153502857Y-92560714D01*
X153312380Y-92560714D01*
X153217142Y-92608333D01*
X152312380Y-93227380D02*
X152312380Y-92703571D01*
X152360000Y-92608333D01*
X152455238Y-92560714D01*
X152645714Y-92560714D01*
X152740952Y-92608333D01*
X152312380Y-93179761D02*
X152407619Y-93227380D01*
X152645714Y-93227380D01*
X152740952Y-93179761D01*
X152788571Y-93084523D01*
X152788571Y-92989285D01*
X152740952Y-92894047D01*
X152645714Y-92846428D01*
X152407619Y-92846428D01*
X152312380Y-92798809D01*
X151217142Y-92560714D02*
X150836190Y-92560714D01*
X151074285Y-92227380D02*
X151074285Y-93084523D01*
X151026666Y-93179761D01*
X150931428Y-93227380D01*
X150836190Y-93227380D01*
X150360000Y-93227380D02*
X150455238Y-93179761D01*
X150502857Y-93132142D01*
X150550476Y-93036904D01*
X150550476Y-92751190D01*
X150502857Y-92655952D01*
X150455238Y-92608333D01*
X150360000Y-92560714D01*
X150217142Y-92560714D01*
X150121904Y-92608333D01*
X150074285Y-92655952D01*
X150026666Y-92751190D01*
X150026666Y-93036904D01*
X150074285Y-93132142D01*
X150121904Y-93179761D01*
X150217142Y-93227380D01*
X150360000Y-93227380D01*
X148502857Y-92703571D02*
X148836190Y-92703571D01*
X148836190Y-93227380D02*
X148836190Y-92227380D01*
X148360000Y-92227380D01*
X147598095Y-93179761D02*
X147693333Y-93227380D01*
X147883809Y-93227380D01*
X147979047Y-93179761D01*
X148026666Y-93084523D01*
X148026666Y-92703571D01*
X147979047Y-92608333D01*
X147883809Y-92560714D01*
X147693333Y-92560714D01*
X147598095Y-92608333D01*
X147550476Y-92703571D01*
X147550476Y-92798809D01*
X148026666Y-92894047D01*
X146693333Y-93227380D02*
X146693333Y-92703571D01*
X146740952Y-92608333D01*
X146836190Y-92560714D01*
X147026666Y-92560714D01*
X147121904Y-92608333D01*
X146693333Y-93179761D02*
X146788571Y-93227380D01*
X147026666Y-93227380D01*
X147121904Y-93179761D01*
X147169523Y-93084523D01*
X147169523Y-92989285D01*
X147121904Y-92894047D01*
X147026666Y-92846428D01*
X146788571Y-92846428D01*
X146693333Y-92798809D01*
X146360000Y-92560714D02*
X145979047Y-92560714D01*
X146217142Y-92227380D02*
X146217142Y-93084523D01*
X146169523Y-93179761D01*
X146074285Y-93227380D01*
X145979047Y-93227380D01*
X145645714Y-93227380D02*
X145645714Y-92227380D01*
X145217142Y-93227380D02*
X145217142Y-92703571D01*
X145264761Y-92608333D01*
X145360000Y-92560714D01*
X145502857Y-92560714D01*
X145598095Y-92608333D01*
X145645714Y-92655952D01*
X144360000Y-93179761D02*
X144455238Y-93227380D01*
X144645714Y-93227380D01*
X144740952Y-93179761D01*
X144788571Y-93084523D01*
X144788571Y-92703571D01*
X144740952Y-92608333D01*
X144645714Y-92560714D01*
X144455238Y-92560714D01*
X144360000Y-92608333D01*
X144312380Y-92703571D01*
X144312380Y-92798809D01*
X144788571Y-92894047D01*
X143883809Y-93227380D02*
X143883809Y-92560714D01*
X143883809Y-92751190D02*
X143836190Y-92655952D01*
X143788571Y-92608333D01*
X143693333Y-92560714D01*
X143598095Y-92560714D01*
X142550476Y-92941666D02*
X142074285Y-92941666D01*
X142645714Y-93227380D02*
X142312380Y-92227380D01*
X141979047Y-93227380D01*
X141217142Y-93227380D02*
X141217142Y-92227380D01*
X141217142Y-93179761D02*
X141312380Y-93227380D01*
X141502857Y-93227380D01*
X141598095Y-93179761D01*
X141645714Y-93132142D01*
X141693333Y-93036904D01*
X141693333Y-92751190D01*
X141645714Y-92655952D01*
X141598095Y-92608333D01*
X141502857Y-92560714D01*
X141312380Y-92560714D01*
X141217142Y-92608333D01*
X140312380Y-93227380D02*
X140312380Y-92703571D01*
X140360000Y-92608333D01*
X140455238Y-92560714D01*
X140645714Y-92560714D01*
X140740952Y-92608333D01*
X140312380Y-93179761D02*
X140407619Y-93227380D01*
X140645714Y-93227380D01*
X140740952Y-93179761D01*
X140788571Y-93084523D01*
X140788571Y-92989285D01*
X140740952Y-92894047D01*
X140645714Y-92846428D01*
X140407619Y-92846428D01*
X140312380Y-92798809D01*
X139836190Y-92560714D02*
X139836190Y-93560714D01*
X139836190Y-92608333D02*
X139740952Y-92560714D01*
X139550476Y-92560714D01*
X139455238Y-92608333D01*
X139407619Y-92655952D01*
X139360000Y-92751190D01*
X139360000Y-93036904D01*
X139407619Y-93132142D01*
X139455238Y-93179761D01*
X139550476Y-93227380D01*
X139740952Y-93227380D01*
X139836190Y-93179761D01*
X139074285Y-92560714D02*
X138693333Y-92560714D01*
X138931428Y-92227380D02*
X138931428Y-93084523D01*
X138883809Y-93179761D01*
X138788571Y-93227380D01*
X138693333Y-93227380D01*
X137979047Y-93179761D02*
X138074285Y-93227380D01*
X138264761Y-93227380D01*
X138360000Y-93179761D01*
X138407619Y-93084523D01*
X138407619Y-92703571D01*
X138360000Y-92608333D01*
X138264761Y-92560714D01*
X138074285Y-92560714D01*
X137979047Y-92608333D01*
X137931428Y-92703571D01*
X137931428Y-92798809D01*
X138407619Y-92894047D01*
X137502857Y-93227380D02*
X137502857Y-92560714D01*
X137502857Y-92751190D02*
X137455238Y-92655952D01*
X137407619Y-92608333D01*
X137312380Y-92560714D01*
X137217142Y-92560714D01*
X157240952Y-94210714D02*
X157002857Y-94877380D01*
X156764761Y-94210714D01*
X156193333Y-93877380D02*
X156098095Y-93877380D01*
X156002857Y-93925000D01*
X155955238Y-93972619D01*
X155907619Y-94067857D01*
X155860000Y-94258333D01*
X155860000Y-94496428D01*
X155907619Y-94686904D01*
X155955238Y-94782142D01*
X156002857Y-94829761D01*
X156098095Y-94877380D01*
X156193333Y-94877380D01*
X156288571Y-94829761D01*
X156336190Y-94782142D01*
X156383809Y-94686904D01*
X156431428Y-94496428D01*
X156431428Y-94258333D01*
X156383809Y-94067857D01*
X156336190Y-93972619D01*
X156288571Y-93925000D01*
X156193333Y-93877380D01*
X155431428Y-94782142D02*
X155383809Y-94829761D01*
X155431428Y-94877380D01*
X155479047Y-94829761D01*
X155431428Y-94782142D01*
X155431428Y-94877380D01*
X154764761Y-93877380D02*
X154669523Y-93877380D01*
X154574285Y-93925000D01*
X154526666Y-93972619D01*
X154479047Y-94067857D01*
X154431428Y-94258333D01*
X154431428Y-94496428D01*
X154479047Y-94686904D01*
X154526666Y-94782142D01*
X154574285Y-94829761D01*
X154669523Y-94877380D01*
X154764761Y-94877380D01*
X154860000Y-94829761D01*
X154907619Y-94782142D01*
X154955238Y-94686904D01*
X155002857Y-94496428D01*
X155002857Y-94258333D01*
X154955238Y-94067857D01*
X154907619Y-93972619D01*
X154860000Y-93925000D01*
X154764761Y-93877380D01*
X154002857Y-94782142D02*
X153955238Y-94829761D01*
X154002857Y-94877380D01*
X154050476Y-94829761D01*
X154002857Y-94782142D01*
X154002857Y-94877380D01*
X153002857Y-94877380D02*
X153574285Y-94877380D01*
X153288571Y-94877380D02*
X153288571Y-93877380D01*
X153383809Y-94020238D01*
X153479047Y-94115476D01*
X153574285Y-94163095D01*
X151860000Y-93972619D02*
X151812380Y-93925000D01*
X151717142Y-93877380D01*
X151479047Y-93877380D01*
X151383809Y-93925000D01*
X151336190Y-93972619D01*
X151288571Y-94067857D01*
X151288571Y-94163095D01*
X151336190Y-94305952D01*
X151907619Y-94877380D01*
X151288571Y-94877380D01*
X150669523Y-93877380D02*
X150574285Y-93877380D01*
X150479047Y-93925000D01*
X150431428Y-93972619D01*
X150383809Y-94067857D01*
X150336190Y-94258333D01*
X150336190Y-94496428D01*
X150383809Y-94686904D01*
X150431428Y-94782142D01*
X150479047Y-94829761D01*
X150574285Y-94877380D01*
X150669523Y-94877380D01*
X150764761Y-94829761D01*
X150812380Y-94782142D01*
X150860000Y-94686904D01*
X150907619Y-94496428D01*
X150907619Y-94258333D01*
X150860000Y-94067857D01*
X150812380Y-93972619D01*
X150764761Y-93925000D01*
X150669523Y-93877380D01*
X149193333Y-93829761D02*
X150050476Y-95115476D01*
X148669523Y-93877380D02*
X148574285Y-93877380D01*
X148479047Y-93925000D01*
X148431428Y-93972619D01*
X148383809Y-94067857D01*
X148336190Y-94258333D01*
X148336190Y-94496428D01*
X148383809Y-94686904D01*
X148431428Y-94782142D01*
X148479047Y-94829761D01*
X148574285Y-94877380D01*
X148669523Y-94877380D01*
X148764761Y-94829761D01*
X148812380Y-94782142D01*
X148860000Y-94686904D01*
X148907619Y-94496428D01*
X148907619Y-94258333D01*
X148860000Y-94067857D01*
X148812380Y-93972619D01*
X148764761Y-93925000D01*
X148669523Y-93877380D01*
X147479047Y-94210714D02*
X147479047Y-94877380D01*
X147717142Y-93829761D02*
X147955238Y-94544047D01*
X147336190Y-94544047D01*
X146240952Y-93829761D02*
X147098095Y-95115476D01*
X145955238Y-93972619D02*
X145907619Y-93925000D01*
X145812380Y-93877380D01*
X145574285Y-93877380D01*
X145479047Y-93925000D01*
X145431428Y-93972619D01*
X145383809Y-94067857D01*
X145383809Y-94163095D01*
X145431428Y-94305952D01*
X146002857Y-94877380D01*
X145383809Y-94877380D01*
X144764761Y-93877380D02*
X144669523Y-93877380D01*
X144574285Y-93925000D01*
X144526666Y-93972619D01*
X144479047Y-94067857D01*
X144431428Y-94258333D01*
X144431428Y-94496428D01*
X144479047Y-94686904D01*
X144526666Y-94782142D01*
X144574285Y-94829761D01*
X144669523Y-94877380D01*
X144764761Y-94877380D01*
X144860000Y-94829761D01*
X144907619Y-94782142D01*
X144955238Y-94686904D01*
X145002857Y-94496428D01*
X145002857Y-94258333D01*
X144955238Y-94067857D01*
X144907619Y-93972619D01*
X144860000Y-93925000D01*
X144764761Y-93877380D01*
X144050476Y-93972619D02*
X144002857Y-93925000D01*
X143907619Y-93877380D01*
X143669523Y-93877380D01*
X143574285Y-93925000D01*
X143526666Y-93972619D01*
X143479047Y-94067857D01*
X143479047Y-94163095D01*
X143526666Y-94305952D01*
X144098095Y-94877380D01*
X143479047Y-94877380D01*
X142860000Y-93877380D02*
X142764761Y-93877380D01*
X142669523Y-93925000D01*
X142621904Y-93972619D01*
X142574285Y-94067857D01*
X142526666Y-94258333D01*
X142526666Y-94496428D01*
X142574285Y-94686904D01*
X142621904Y-94782142D01*
X142669523Y-94829761D01*
X142764761Y-94877380D01*
X142860000Y-94877380D01*
X142955238Y-94829761D01*
X143002857Y-94782142D01*
X143050476Y-94686904D01*
X143098095Y-94496428D01*
X143098095Y-94258333D01*
X143050476Y-94067857D01*
X143002857Y-93972619D01*
X142955238Y-93925000D01*
X142860000Y-93877380D01*
X159812380Y-96527380D02*
X159812380Y-95527380D01*
X159812380Y-95908333D02*
X159717142Y-95860714D01*
X159526666Y-95860714D01*
X159431428Y-95908333D01*
X159383809Y-95955952D01*
X159336190Y-96051190D01*
X159336190Y-96336904D01*
X159383809Y-96432142D01*
X159431428Y-96479761D01*
X159526666Y-96527380D01*
X159717142Y-96527380D01*
X159812380Y-96479761D01*
X159002857Y-95860714D02*
X158764761Y-96527380D01*
X158526666Y-95860714D02*
X158764761Y-96527380D01*
X158860000Y-96765476D01*
X158907619Y-96813095D01*
X159002857Y-96860714D01*
X157526666Y-95527380D02*
X156955238Y-95527380D01*
X157240952Y-96527380D02*
X157240952Y-95527380D01*
X156621904Y-96527380D02*
X156621904Y-95860714D01*
X156621904Y-95527380D02*
X156669523Y-95575000D01*
X156621904Y-95622619D01*
X156574285Y-95575000D01*
X156621904Y-95527380D01*
X156621904Y-95622619D01*
X156193333Y-96479761D02*
X156098095Y-96527380D01*
X155907619Y-96527380D01*
X155812380Y-96479761D01*
X155764761Y-96384523D01*
X155764761Y-96336904D01*
X155812380Y-96241666D01*
X155907619Y-96194047D01*
X156050476Y-96194047D01*
X156145714Y-96146428D01*
X156193333Y-96051190D01*
X156193333Y-96003571D01*
X156145714Y-95908333D01*
X156050476Y-95860714D01*
X155907619Y-95860714D01*
X155812380Y-95908333D01*
X155336190Y-96527380D02*
X155336190Y-95527380D01*
X154907619Y-96527380D02*
X154907619Y-96003571D01*
X154955238Y-95908333D01*
X155050476Y-95860714D01*
X155193333Y-95860714D01*
X155288571Y-95908333D01*
X155336190Y-95955952D01*
X154002857Y-96527380D02*
X154002857Y-96003571D01*
X154050476Y-95908333D01*
X154145714Y-95860714D01*
X154336190Y-95860714D01*
X154431428Y-95908333D01*
X154002857Y-96479761D02*
X154098095Y-96527380D01*
X154336190Y-96527380D01*
X154431428Y-96479761D01*
X154479047Y-96384523D01*
X154479047Y-96289285D01*
X154431428Y-96194047D01*
X154336190Y-96146428D01*
X154098095Y-96146428D01*
X154002857Y-96098809D01*
X153526666Y-96527380D02*
X153526666Y-95860714D01*
X153526666Y-95955952D02*
X153479047Y-95908333D01*
X153383809Y-95860714D01*
X153240952Y-95860714D01*
X153145714Y-95908333D01*
X153098095Y-96003571D01*
X153098095Y-96527380D01*
X153098095Y-96003571D02*
X153050476Y-95908333D01*
X152955238Y-95860714D01*
X152812380Y-95860714D01*
X152717142Y-95908333D01*
X152669523Y-96003571D01*
X152669523Y-96527380D01*
X151145714Y-96908333D02*
X151193333Y-96860714D01*
X151288571Y-96717857D01*
X151336190Y-96622619D01*
X151383809Y-96479761D01*
X151431428Y-96241666D01*
X151431428Y-96051190D01*
X151383809Y-95813095D01*
X151336190Y-95670238D01*
X151288571Y-95575000D01*
X151193333Y-95432142D01*
X151145714Y-95384523D01*
X150860000Y-95860714D02*
X150669523Y-96527380D01*
X150479047Y-96051190D01*
X150288571Y-96527380D01*
X150098095Y-95860714D01*
X149717142Y-96527380D02*
X149717142Y-95527380D01*
X149288571Y-96527380D02*
X149288571Y-96003571D01*
X149336190Y-95908333D01*
X149431428Y-95860714D01*
X149574285Y-95860714D01*
X149669523Y-95908333D01*
X149717142Y-95955952D01*
X148383809Y-96527380D02*
X148383809Y-96003571D01*
X148431428Y-95908333D01*
X148526666Y-95860714D01*
X148717142Y-95860714D01*
X148812380Y-95908333D01*
X148383809Y-96479761D02*
X148479047Y-96527380D01*
X148717142Y-96527380D01*
X148812380Y-96479761D01*
X148860000Y-96384523D01*
X148860000Y-96289285D01*
X148812380Y-96194047D01*
X148717142Y-96146428D01*
X148479047Y-96146428D01*
X148383809Y-96098809D01*
X148050476Y-95860714D02*
X147669523Y-95860714D01*
X147907619Y-95527380D02*
X147907619Y-96384523D01*
X147860000Y-96479761D01*
X147764761Y-96527380D01*
X147669523Y-96527380D01*
X147336190Y-95860714D02*
X147336190Y-96527380D01*
X147336190Y-95955952D02*
X147288571Y-95908333D01*
X147193333Y-95860714D01*
X147050476Y-95860714D01*
X146955238Y-95908333D01*
X146907619Y-96003571D01*
X146907619Y-96527380D01*
X146431428Y-96527380D02*
X146431428Y-95860714D01*
X146431428Y-95527380D02*
X146479047Y-95575000D01*
X146431428Y-95622619D01*
X146383809Y-95575000D01*
X146431428Y-95527380D01*
X146431428Y-95622619D01*
X145526666Y-96479761D02*
X145621904Y-96527380D01*
X145812380Y-96527380D01*
X145907619Y-96479761D01*
X145955238Y-96432142D01*
X146002857Y-96336904D01*
X146002857Y-96051190D01*
X145955238Y-95955952D01*
X145907619Y-95908333D01*
X145812380Y-95860714D01*
X145621904Y-95860714D01*
X145526666Y-95908333D01*
X145098095Y-96527380D02*
X145098095Y-95527380D01*
X145002857Y-96146428D02*
X144717142Y-96527380D01*
X144717142Y-95860714D02*
X145098095Y-96241666D01*
X144383809Y-96908333D02*
X144336190Y-96860714D01*
X144240952Y-96717857D01*
X144193333Y-96622619D01*
X144145714Y-96479761D01*
X144098095Y-96241666D01*
X144098095Y-96051190D01*
X144145714Y-95813095D01*
X144193333Y-95670238D01*
X144240952Y-95575000D01*
X144336190Y-95432142D01*
X144383809Y-95384523D01*
X142860000Y-96527380D02*
X142860000Y-95527380D01*
X142621904Y-95527380D01*
X142479047Y-95575000D01*
X142383809Y-95670238D01*
X142336190Y-95765476D01*
X142288571Y-95955952D01*
X142288571Y-96098809D01*
X142336190Y-96289285D01*
X142383809Y-96384523D01*
X142479047Y-96479761D01*
X142621904Y-96527380D01*
X142860000Y-96527380D01*
X141860000Y-96527380D02*
X141860000Y-95527380D01*
X141431428Y-96527380D02*
X141431428Y-96003571D01*
X141479047Y-95908333D01*
X141574285Y-95860714D01*
X141717142Y-95860714D01*
X141812380Y-95908333D01*
X141860000Y-95955952D01*
X140526666Y-96527380D02*
X140526666Y-96003571D01*
X140574285Y-95908333D01*
X140669523Y-95860714D01*
X140860000Y-95860714D01*
X140955238Y-95908333D01*
X140526666Y-96479761D02*
X140621904Y-96527380D01*
X140860000Y-96527380D01*
X140955238Y-96479761D01*
X141002857Y-96384523D01*
X141002857Y-96289285D01*
X140955238Y-96194047D01*
X140860000Y-96146428D01*
X140621904Y-96146428D01*
X140526666Y-96098809D01*
X140050476Y-96527380D02*
X140050476Y-95860714D01*
X140050476Y-96051190D02*
X140002857Y-95955952D01*
X139955238Y-95908333D01*
X139860000Y-95860714D01*
X139764761Y-95860714D01*
X153717142Y-97177380D02*
X153526666Y-97177380D01*
X153431428Y-97225000D01*
X153336190Y-97320238D01*
X153288571Y-97510714D01*
X153288571Y-97844047D01*
X153336190Y-98034523D01*
X153431428Y-98129761D01*
X153526666Y-98177380D01*
X153717142Y-98177380D01*
X153812380Y-98129761D01*
X153907619Y-98034523D01*
X153955238Y-97844047D01*
X153955238Y-97510714D01*
X153907619Y-97320238D01*
X153812380Y-97225000D01*
X153717142Y-97177380D01*
X152907619Y-98129761D02*
X152764761Y-98177380D01*
X152526666Y-98177380D01*
X152431428Y-98129761D01*
X152383809Y-98082142D01*
X152336190Y-97986904D01*
X152336190Y-97891666D01*
X152383809Y-97796428D01*
X152431428Y-97748809D01*
X152526666Y-97701190D01*
X152717142Y-97653571D01*
X152812380Y-97605952D01*
X152860000Y-97558333D01*
X152907619Y-97463095D01*
X152907619Y-97367857D01*
X152860000Y-97272619D01*
X152812380Y-97225000D01*
X152717142Y-97177380D01*
X152479047Y-97177380D01*
X152336190Y-97225000D01*
X151907619Y-98177380D02*
X151907619Y-97177380D01*
X151907619Y-97653571D02*
X151336190Y-97653571D01*
X151336190Y-98177380D02*
X151336190Y-97177380D01*
X150955238Y-97177380D02*
X150717142Y-98177380D01*
X150526666Y-97463095D01*
X150336190Y-98177380D01*
X150098095Y-97177380D01*
X149098095Y-97177380D02*
X148526666Y-97177380D01*
X148812380Y-98177380D02*
X148812380Y-97177380D01*
X148240952Y-97891666D02*
X147764761Y-97891666D01*
X148336190Y-98177380D02*
X148002857Y-97177380D01*
X147669523Y-98177380D01*
X147336190Y-98177380D02*
X147336190Y-97177380D01*
X146955238Y-97177380D01*
X146859999Y-97225000D01*
X146812380Y-97272619D01*
X146764761Y-97367857D01*
X146764761Y-97510714D01*
X146812380Y-97605952D01*
X146859999Y-97653571D01*
X146955238Y-97701190D01*
X147336190Y-97701190D01*
X145764761Y-98177380D02*
X146098095Y-97701190D01*
X146336190Y-98177380D02*
X146336190Y-97177380D01*
X145955238Y-97177380D01*
X145859999Y-97225000D01*
X145812380Y-97272619D01*
X145764761Y-97367857D01*
X145764761Y-97510714D01*
X145812380Y-97605952D01*
X145859999Y-97653571D01*
X145955238Y-97701190D01*
X146336190Y-97701190D01*
D11*
G36*
X135151090Y-100747348D02*
G01*
X135072546Y-100747778D01*
X135015702Y-100748942D01*
X134976895Y-100751207D01*
X134952462Y-100754940D01*
X134938738Y-100760506D01*
X134932060Y-100768273D01*
X134928764Y-100778605D01*
X134928444Y-100779943D01*
X134923438Y-100804079D01*
X134914171Y-100851701D01*
X134901608Y-100917741D01*
X134886713Y-100997128D01*
X134870449Y-101084796D01*
X134869881Y-101087875D01*
X134853590Y-101173789D01*
X134838348Y-101249696D01*
X134825139Y-101311045D01*
X134814946Y-101353282D01*
X134808752Y-101371855D01*
X134808457Y-101372184D01*
X134790212Y-101381253D01*
X134752595Y-101396367D01*
X134703729Y-101414262D01*
X134703457Y-101414358D01*
X134641907Y-101437493D01*
X134569343Y-101466965D01*
X134500943Y-101496597D01*
X134497706Y-101498062D01*
X134386298Y-101548626D01*
X134139601Y-101380160D01*
X134063923Y-101328803D01*
X133995369Y-101282889D01*
X133937912Y-101245030D01*
X133895524Y-101217837D01*
X133872175Y-101203921D01*
X133869958Y-101202889D01*
X133852990Y-101207484D01*
X133821299Y-101229655D01*
X133773648Y-101270447D01*
X133708802Y-101330905D01*
X133642603Y-101395227D01*
X133578786Y-101458612D01*
X133521671Y-101516451D01*
X133474695Y-101565175D01*
X133441297Y-101601210D01*
X133424915Y-101620984D01*
X133424306Y-101622002D01*
X133422495Y-101635572D01*
X133429317Y-101657733D01*
X133446460Y-101691478D01*
X133475607Y-101739800D01*
X133518445Y-101805692D01*
X133575552Y-101890517D01*
X133626234Y-101965177D01*
X133671539Y-102032140D01*
X133708850Y-102087516D01*
X133735548Y-102127420D01*
X133749015Y-102147962D01*
X133749863Y-102149356D01*
X133748219Y-102169038D01*
X133735755Y-102207293D01*
X133714952Y-102256889D01*
X133707538Y-102272728D01*
X133675186Y-102343290D01*
X133640672Y-102423353D01*
X133612635Y-102492629D01*
X133592432Y-102544045D01*
X133576385Y-102583119D01*
X133567112Y-102603541D01*
X133565959Y-102605114D01*
X133548904Y-102607721D01*
X133508702Y-102614863D01*
X133450698Y-102625523D01*
X133380237Y-102638685D01*
X133302665Y-102653333D01*
X133223328Y-102668449D01*
X133147569Y-102683018D01*
X133080736Y-102696022D01*
X133028172Y-102706445D01*
X132995224Y-102713270D01*
X132987143Y-102715199D01*
X132978795Y-102719962D01*
X132972494Y-102730718D01*
X132967955Y-102751098D01*
X132964896Y-102784734D01*
X132963033Y-102835255D01*
X132962082Y-102906292D01*
X132961760Y-103001476D01*
X132961743Y-103040492D01*
X132961743Y-103357799D01*
X133037943Y-103372839D01*
X133080337Y-103380995D01*
X133143600Y-103392899D01*
X133220038Y-103407116D01*
X133301957Y-103422210D01*
X133324600Y-103426355D01*
X133400194Y-103441053D01*
X133466047Y-103455505D01*
X133516634Y-103468375D01*
X133546426Y-103478322D01*
X133551388Y-103481287D01*
X133563574Y-103502283D01*
X133581047Y-103542967D01*
X133600423Y-103595322D01*
X133604266Y-103606600D01*
X133629661Y-103676523D01*
X133661183Y-103755418D01*
X133692031Y-103826266D01*
X133692183Y-103826595D01*
X133743553Y-103937733D01*
X133574601Y-104186253D01*
X133405648Y-104434772D01*
X133622571Y-104652058D01*
X133688181Y-104716726D01*
X133748021Y-104773733D01*
X133798733Y-104820033D01*
X133836954Y-104852584D01*
X133859325Y-104868343D01*
X133862534Y-104869343D01*
X133881374Y-104861469D01*
X133919820Y-104839578D01*
X133973670Y-104806267D01*
X134038724Y-104764131D01*
X134109060Y-104716943D01*
X134180445Y-104668810D01*
X134244092Y-104626928D01*
X134295959Y-104593871D01*
X134332005Y-104572218D01*
X134348133Y-104564543D01*
X134367811Y-104571037D01*
X134405125Y-104588150D01*
X134452379Y-104612326D01*
X134457388Y-104615013D01*
X134521023Y-104646927D01*
X134564659Y-104662579D01*
X134591798Y-104662745D01*
X134605943Y-104648204D01*
X134606025Y-104648000D01*
X134613095Y-104630779D01*
X134629958Y-104589899D01*
X134655305Y-104528525D01*
X134687829Y-104449819D01*
X134726222Y-104356947D01*
X134769178Y-104253072D01*
X134810778Y-104152502D01*
X134856496Y-104041516D01*
X134898474Y-103938703D01*
X134935452Y-103847215D01*
X134966173Y-103770201D01*
X134989378Y-103710815D01*
X135003810Y-103672209D01*
X135008257Y-103657800D01*
X134997104Y-103641272D01*
X134967931Y-103614930D01*
X134929029Y-103585887D01*
X134818243Y-103494039D01*
X134731649Y-103388759D01*
X134670284Y-103272266D01*
X134635185Y-103146776D01*
X134627392Y-103014507D01*
X134633057Y-102953457D01*
X134663922Y-102826795D01*
X134717080Y-102714941D01*
X134789233Y-102619001D01*
X134877083Y-102540076D01*
X134977335Y-102479270D01*
X135086690Y-102437687D01*
X135201853Y-102416428D01*
X135319525Y-102416599D01*
X135436410Y-102439301D01*
X135549211Y-102485638D01*
X135654631Y-102556713D01*
X135698632Y-102596911D01*
X135783021Y-102700129D01*
X135841778Y-102812925D01*
X135875296Y-102932010D01*
X135883965Y-103054095D01*
X135868177Y-103175893D01*
X135828322Y-103294116D01*
X135764793Y-103405475D01*
X135677979Y-103506684D01*
X135580971Y-103585887D01*
X135540563Y-103616162D01*
X135512018Y-103642219D01*
X135501743Y-103657825D01*
X135507123Y-103674843D01*
X135522425Y-103715500D01*
X135546388Y-103776642D01*
X135577756Y-103855119D01*
X135615268Y-103947780D01*
X135657667Y-104051472D01*
X135699337Y-104152526D01*
X135745310Y-104263607D01*
X135787893Y-104366541D01*
X135825779Y-104458165D01*
X135857660Y-104535316D01*
X135882229Y-104594831D01*
X135898180Y-104633544D01*
X135904090Y-104648000D01*
X135918052Y-104662685D01*
X135945060Y-104662642D01*
X135988587Y-104647099D01*
X136052110Y-104615284D01*
X136052612Y-104615013D01*
X136100440Y-104590323D01*
X136139103Y-104572338D01*
X136160905Y-104564614D01*
X136161867Y-104564543D01*
X136178279Y-104572378D01*
X136214513Y-104594165D01*
X136266526Y-104627328D01*
X136330275Y-104669291D01*
X136400940Y-104716943D01*
X136472884Y-104765191D01*
X136537726Y-104807151D01*
X136591265Y-104840227D01*
X136629303Y-104861821D01*
X136647467Y-104869343D01*
X136664192Y-104859457D01*
X136697820Y-104831826D01*
X136744990Y-104789495D01*
X136802342Y-104735505D01*
X136866516Y-104672899D01*
X136887503Y-104651983D01*
X137104501Y-104434623D01*
X136939332Y-104192220D01*
X136889136Y-104117781D01*
X136845081Y-104050972D01*
X136809638Y-103995665D01*
X136785281Y-103955729D01*
X136774478Y-103935036D01*
X136774162Y-103933563D01*
X136779857Y-103914058D01*
X136795174Y-103874822D01*
X136817463Y-103822430D01*
X136833107Y-103787355D01*
X136862359Y-103720201D01*
X136889906Y-103652358D01*
X136911263Y-103595034D01*
X136917065Y-103577572D01*
X136933548Y-103530938D01*
X136949660Y-103494905D01*
X136958510Y-103481287D01*
X136978040Y-103472952D01*
X137020666Y-103461137D01*
X137080855Y-103447181D01*
X137153078Y-103432422D01*
X137185400Y-103426355D01*
X137267478Y-103411273D01*
X137346205Y-103396669D01*
X137413891Y-103383980D01*
X137462840Y-103374642D01*
X137472057Y-103372839D01*
X137548257Y-103357799D01*
X137548257Y-103040492D01*
X137548086Y-102936154D01*
X137547384Y-102857213D01*
X137545866Y-102800038D01*
X137543251Y-102760999D01*
X137539254Y-102736465D01*
X137533591Y-102722805D01*
X137525980Y-102716389D01*
X137522857Y-102715199D01*
X137504022Y-102710980D01*
X137462412Y-102702562D01*
X137403370Y-102690961D01*
X137332243Y-102677195D01*
X137254375Y-102662280D01*
X137175113Y-102647232D01*
X137099802Y-102633069D01*
X137033787Y-102620806D01*
X136982413Y-102611461D01*
X136951025Y-102606050D01*
X136944041Y-102605114D01*
X136937715Y-102592596D01*
X136923710Y-102559246D01*
X136904645Y-102511377D01*
X136897366Y-102492629D01*
X136868004Y-102420195D01*
X136833429Y-102340170D01*
X136802463Y-102272728D01*
X136779677Y-102221159D01*
X136764518Y-102178785D01*
X136759458Y-102152834D01*
X136760264Y-102149356D01*
X136770959Y-102132936D01*
X136795380Y-102096417D01*
X136830905Y-102043687D01*
X136874913Y-101978635D01*
X136924783Y-101905151D01*
X136934644Y-101890645D01*
X136992508Y-101804704D01*
X137035044Y-101739261D01*
X137063946Y-101691304D01*
X137080910Y-101657820D01*
X137087633Y-101635795D01*
X137085810Y-101622217D01*
X137085764Y-101622131D01*
X137071414Y-101604297D01*
X137039677Y-101569817D01*
X136993990Y-101522268D01*
X136937796Y-101465222D01*
X136874532Y-101402255D01*
X136867398Y-101395227D01*
X136787670Y-101318020D01*
X136726143Y-101261330D01*
X136681579Y-101224110D01*
X136652743Y-101205315D01*
X136640042Y-101202889D01*
X136621506Y-101213471D01*
X136583039Y-101237916D01*
X136528614Y-101273612D01*
X136462202Y-101317947D01*
X136387775Y-101368311D01*
X136370399Y-101380160D01*
X136123703Y-101548626D01*
X136012294Y-101498062D01*
X135944543Y-101468595D01*
X135871817Y-101438959D01*
X135809297Y-101415330D01*
X135806543Y-101414358D01*
X135757640Y-101396457D01*
X135719943Y-101381320D01*
X135701575Y-101372210D01*
X135701544Y-101372184D01*
X135695715Y-101355717D01*
X135685808Y-101315219D01*
X135672805Y-101255242D01*
X135657691Y-101180340D01*
X135641448Y-101095064D01*
X135640119Y-101087875D01*
X135623825Y-101000014D01*
X135608867Y-100920260D01*
X135596209Y-100853681D01*
X135586814Y-100805347D01*
X135581646Y-100780325D01*
X135581556Y-100779943D01*
X135578411Y-100769299D01*
X135572296Y-100761262D01*
X135559547Y-100755467D01*
X135536500Y-100751547D01*
X135499491Y-100749135D01*
X135444856Y-100747865D01*
X135368933Y-100747371D01*
X135268056Y-100747286D01*
X135255000Y-100747286D01*
X135151090Y-100747348D01*
G37*
X135151090Y-100747348D02*
X135072546Y-100747778D01*
X135015702Y-100748942D01*
X134976895Y-100751207D01*
X134952462Y-100754940D01*
X134938738Y-100760506D01*
X134932060Y-100768273D01*
X134928764Y-100778605D01*
X134928444Y-100779943D01*
X134923438Y-100804079D01*
X134914171Y-100851701D01*
X134901608Y-100917741D01*
X134886713Y-100997128D01*
X134870449Y-101084796D01*
X134869881Y-101087875D01*
X134853590Y-101173789D01*
X134838348Y-101249696D01*
X134825139Y-101311045D01*
X134814946Y-101353282D01*
X134808752Y-101371855D01*
X134808457Y-101372184D01*
X134790212Y-101381253D01*
X134752595Y-101396367D01*
X134703729Y-101414262D01*
X134703457Y-101414358D01*
X134641907Y-101437493D01*
X134569343Y-101466965D01*
X134500943Y-101496597D01*
X134497706Y-101498062D01*
X134386298Y-101548626D01*
X134139601Y-101380160D01*
X134063923Y-101328803D01*
X133995369Y-101282889D01*
X133937912Y-101245030D01*
X133895524Y-101217837D01*
X133872175Y-101203921D01*
X133869958Y-101202889D01*
X133852990Y-101207484D01*
X133821299Y-101229655D01*
X133773648Y-101270447D01*
X133708802Y-101330905D01*
X133642603Y-101395227D01*
X133578786Y-101458612D01*
X133521671Y-101516451D01*
X133474695Y-101565175D01*
X133441297Y-101601210D01*
X133424915Y-101620984D01*
X133424306Y-101622002D01*
X133422495Y-101635572D01*
X133429317Y-101657733D01*
X133446460Y-101691478D01*
X133475607Y-101739800D01*
X133518445Y-101805692D01*
X133575552Y-101890517D01*
X133626234Y-101965177D01*
X133671539Y-102032140D01*
X133708850Y-102087516D01*
X133735548Y-102127420D01*
X133749015Y-102147962D01*
X133749863Y-102149356D01*
X133748219Y-102169038D01*
X133735755Y-102207293D01*
X133714952Y-102256889D01*
X133707538Y-102272728D01*
X133675186Y-102343290D01*
X133640672Y-102423353D01*
X133612635Y-102492629D01*
X133592432Y-102544045D01*
X133576385Y-102583119D01*
X133567112Y-102603541D01*
X133565959Y-102605114D01*
X133548904Y-102607721D01*
X133508702Y-102614863D01*
X133450698Y-102625523D01*
X133380237Y-102638685D01*
X133302665Y-102653333D01*
X133223328Y-102668449D01*
X133147569Y-102683018D01*
X133080736Y-102696022D01*
X133028172Y-102706445D01*
X132995224Y-102713270D01*
X132987143Y-102715199D01*
X132978795Y-102719962D01*
X132972494Y-102730718D01*
X132967955Y-102751098D01*
X132964896Y-102784734D01*
X132963033Y-102835255D01*
X132962082Y-102906292D01*
X132961760Y-103001476D01*
X132961743Y-103040492D01*
X132961743Y-103357799D01*
X133037943Y-103372839D01*
X133080337Y-103380995D01*
X133143600Y-103392899D01*
X133220038Y-103407116D01*
X133301957Y-103422210D01*
X133324600Y-103426355D01*
X133400194Y-103441053D01*
X133466047Y-103455505D01*
X133516634Y-103468375D01*
X133546426Y-103478322D01*
X133551388Y-103481287D01*
X133563574Y-103502283D01*
X133581047Y-103542967D01*
X133600423Y-103595322D01*
X133604266Y-103606600D01*
X133629661Y-103676523D01*
X133661183Y-103755418D01*
X133692031Y-103826266D01*
X133692183Y-103826595D01*
X133743553Y-103937733D01*
X133574601Y-104186253D01*
X133405648Y-104434772D01*
X133622571Y-104652058D01*
X133688181Y-104716726D01*
X133748021Y-104773733D01*
X133798733Y-104820033D01*
X133836954Y-104852584D01*
X133859325Y-104868343D01*
X133862534Y-104869343D01*
X133881374Y-104861469D01*
X133919820Y-104839578D01*
X133973670Y-104806267D01*
X134038724Y-104764131D01*
X134109060Y-104716943D01*
X134180445Y-104668810D01*
X134244092Y-104626928D01*
X134295959Y-104593871D01*
X134332005Y-104572218D01*
X134348133Y-104564543D01*
X134367811Y-104571037D01*
X134405125Y-104588150D01*
X134452379Y-104612326D01*
X134457388Y-104615013D01*
X134521023Y-104646927D01*
X134564659Y-104662579D01*
X134591798Y-104662745D01*
X134605943Y-104648204D01*
X134606025Y-104648000D01*
X134613095Y-104630779D01*
X134629958Y-104589899D01*
X134655305Y-104528525D01*
X134687829Y-104449819D01*
X134726222Y-104356947D01*
X134769178Y-104253072D01*
X134810778Y-104152502D01*
X134856496Y-104041516D01*
X134898474Y-103938703D01*
X134935452Y-103847215D01*
X134966173Y-103770201D01*
X134989378Y-103710815D01*
X135003810Y-103672209D01*
X135008257Y-103657800D01*
X134997104Y-103641272D01*
X134967931Y-103614930D01*
X134929029Y-103585887D01*
X134818243Y-103494039D01*
X134731649Y-103388759D01*
X134670284Y-103272266D01*
X134635185Y-103146776D01*
X134627392Y-103014507D01*
X134633057Y-102953457D01*
X134663922Y-102826795D01*
X134717080Y-102714941D01*
X134789233Y-102619001D01*
X134877083Y-102540076D01*
X134977335Y-102479270D01*
X135086690Y-102437687D01*
X135201853Y-102416428D01*
X135319525Y-102416599D01*
X135436410Y-102439301D01*
X135549211Y-102485638D01*
X135654631Y-102556713D01*
X135698632Y-102596911D01*
X135783021Y-102700129D01*
X135841778Y-102812925D01*
X135875296Y-102932010D01*
X135883965Y-103054095D01*
X135868177Y-103175893D01*
X135828322Y-103294116D01*
X135764793Y-103405475D01*
X135677979Y-103506684D01*
X135580971Y-103585887D01*
X135540563Y-103616162D01*
X135512018Y-103642219D01*
X135501743Y-103657825D01*
X135507123Y-103674843D01*
X135522425Y-103715500D01*
X135546388Y-103776642D01*
X135577756Y-103855119D01*
X135615268Y-103947780D01*
X135657667Y-104051472D01*
X135699337Y-104152526D01*
X135745310Y-104263607D01*
X135787893Y-104366541D01*
X135825779Y-104458165D01*
X135857660Y-104535316D01*
X135882229Y-104594831D01*
X135898180Y-104633544D01*
X135904090Y-104648000D01*
X135918052Y-104662685D01*
X135945060Y-104662642D01*
X135988587Y-104647099D01*
X136052110Y-104615284D01*
X136052612Y-104615013D01*
X136100440Y-104590323D01*
X136139103Y-104572338D01*
X136160905Y-104564614D01*
X136161867Y-104564543D01*
X136178279Y-104572378D01*
X136214513Y-104594165D01*
X136266526Y-104627328D01*
X136330275Y-104669291D01*
X136400940Y-104716943D01*
X136472884Y-104765191D01*
X136537726Y-104807151D01*
X136591265Y-104840227D01*
X136629303Y-104861821D01*
X136647467Y-104869343D01*
X136664192Y-104859457D01*
X136697820Y-104831826D01*
X136744990Y-104789495D01*
X136802342Y-104735505D01*
X136866516Y-104672899D01*
X136887503Y-104651983D01*
X137104501Y-104434623D01*
X136939332Y-104192220D01*
X136889136Y-104117781D01*
X136845081Y-104050972D01*
X136809638Y-103995665D01*
X136785281Y-103955729D01*
X136774478Y-103935036D01*
X136774162Y-103933563D01*
X136779857Y-103914058D01*
X136795174Y-103874822D01*
X136817463Y-103822430D01*
X136833107Y-103787355D01*
X136862359Y-103720201D01*
X136889906Y-103652358D01*
X136911263Y-103595034D01*
X136917065Y-103577572D01*
X136933548Y-103530938D01*
X136949660Y-103494905D01*
X136958510Y-103481287D01*
X136978040Y-103472952D01*
X137020666Y-103461137D01*
X137080855Y-103447181D01*
X137153078Y-103432422D01*
X137185400Y-103426355D01*
X137267478Y-103411273D01*
X137346205Y-103396669D01*
X137413891Y-103383980D01*
X137462840Y-103374642D01*
X137472057Y-103372839D01*
X137548257Y-103357799D01*
X137548257Y-103040492D01*
X137548086Y-102936154D01*
X137547384Y-102857213D01*
X137545866Y-102800038D01*
X137543251Y-102760999D01*
X137539254Y-102736465D01*
X137533591Y-102722805D01*
X137525980Y-102716389D01*
X137522857Y-102715199D01*
X137504022Y-102710980D01*
X137462412Y-102702562D01*
X137403370Y-102690961D01*
X137332243Y-102677195D01*
X137254375Y-102662280D01*
X137175113Y-102647232D01*
X137099802Y-102633069D01*
X137033787Y-102620806D01*
X136982413Y-102611461D01*
X136951025Y-102606050D01*
X136944041Y-102605114D01*
X136937715Y-102592596D01*
X136923710Y-102559246D01*
X136904645Y-102511377D01*
X136897366Y-102492629D01*
X136868004Y-102420195D01*
X136833429Y-102340170D01*
X136802463Y-102272728D01*
X136779677Y-102221159D01*
X136764518Y-102178785D01*
X136759458Y-102152834D01*
X136760264Y-102149356D01*
X136770959Y-102132936D01*
X136795380Y-102096417D01*
X136830905Y-102043687D01*
X136874913Y-101978635D01*
X136924783Y-101905151D01*
X136934644Y-101890645D01*
X136992508Y-101804704D01*
X137035044Y-101739261D01*
X137063946Y-101691304D01*
X137080910Y-101657820D01*
X137087633Y-101635795D01*
X137085810Y-101622217D01*
X137085764Y-101622131D01*
X137071414Y-101604297D01*
X137039677Y-101569817D01*
X136993990Y-101522268D01*
X136937796Y-101465222D01*
X136874532Y-101402255D01*
X136867398Y-101395227D01*
X136787670Y-101318020D01*
X136726143Y-101261330D01*
X136681579Y-101224110D01*
X136652743Y-101205315D01*
X136640042Y-101202889D01*
X136621506Y-101213471D01*
X136583039Y-101237916D01*
X136528614Y-101273612D01*
X136462202Y-101317947D01*
X136387775Y-101368311D01*
X136370399Y-101380160D01*
X136123703Y-101548626D01*
X136012294Y-101498062D01*
X135944543Y-101468595D01*
X135871817Y-101438959D01*
X135809297Y-101415330D01*
X135806543Y-101414358D01*
X135757640Y-101396457D01*
X135719943Y-101381320D01*
X135701575Y-101372210D01*
X135701544Y-101372184D01*
X135695715Y-101355717D01*
X135685808Y-101315219D01*
X135672805Y-101255242D01*
X135657691Y-101180340D01*
X135641448Y-101095064D01*
X135640119Y-101087875D01*
X135623825Y-101000014D01*
X135608867Y-100920260D01*
X135596209Y-100853681D01*
X135586814Y-100805347D01*
X135581646Y-100780325D01*
X135581556Y-100779943D01*
X135578411Y-100769299D01*
X135572296Y-100761262D01*
X135559547Y-100755467D01*
X135536500Y-100751547D01*
X135499491Y-100749135D01*
X135444856Y-100747865D01*
X135368933Y-100747371D01*
X135268056Y-100747286D01*
X135255000Y-100747286D01*
X135151090Y-100747348D01*
G36*
X132101405Y-105471966D02*
G01*
X132043979Y-105509497D01*
X132016281Y-105543096D01*
X131994338Y-105604064D01*
X131992595Y-105652308D01*
X131996543Y-105716816D01*
X132145314Y-105781934D01*
X132217651Y-105815202D01*
X132264916Y-105841964D01*
X132289493Y-105865144D01*
X132293763Y-105887667D01*
X132280111Y-105912455D01*
X132265057Y-105928886D01*
X132221254Y-105955235D01*
X132173611Y-105957081D01*
X132129855Y-105936546D01*
X132097711Y-105895752D01*
X132091962Y-105881347D01*
X132064424Y-105836356D01*
X132032742Y-105817182D01*
X131989286Y-105800779D01*
X131989286Y-105862966D01*
X131993128Y-105905283D01*
X132008177Y-105940969D01*
X132039720Y-105981943D01*
X132044408Y-105987267D01*
X132079494Y-106023720D01*
X132109653Y-106043283D01*
X132147385Y-106052283D01*
X132178665Y-106055230D01*
X132234615Y-106055965D01*
X132274445Y-106046660D01*
X132299292Y-106032846D01*
X132338344Y-106002467D01*
X132365375Y-105969613D01*
X132382483Y-105928294D01*
X132391762Y-105872521D01*
X132395307Y-105796305D01*
X132395590Y-105757622D01*
X132394628Y-105711247D01*
X132306993Y-105711247D01*
X132305977Y-105736126D01*
X132303444Y-105740200D01*
X132286726Y-105734665D01*
X132250751Y-105720017D01*
X132202669Y-105699190D01*
X132192614Y-105694714D01*
X132131848Y-105663814D01*
X132098368Y-105636657D01*
X132091010Y-105611220D01*
X132108609Y-105585481D01*
X132123144Y-105574109D01*
X132175590Y-105551364D01*
X132224678Y-105555122D01*
X132265773Y-105582884D01*
X132294242Y-105632152D01*
X132303369Y-105671257D01*
X132306993Y-105711247D01*
X132394628Y-105711247D01*
X132393715Y-105667249D01*
X132386804Y-105600384D01*
X132373116Y-105551695D01*
X132350904Y-105515849D01*
X132318426Y-105487513D01*
X132304267Y-105478355D01*
X132239947Y-105454507D01*
X132169527Y-105453006D01*
X132101405Y-105471966D01*
G37*
X132101405Y-105471966D02*
X132043979Y-105509497D01*
X132016281Y-105543096D01*
X131994338Y-105604064D01*
X131992595Y-105652308D01*
X131996543Y-105716816D01*
X132145314Y-105781934D01*
X132217651Y-105815202D01*
X132264916Y-105841964D01*
X132289493Y-105865144D01*
X132293763Y-105887667D01*
X132280111Y-105912455D01*
X132265057Y-105928886D01*
X132221254Y-105955235D01*
X132173611Y-105957081D01*
X132129855Y-105936546D01*
X132097711Y-105895752D01*
X132091962Y-105881347D01*
X132064424Y-105836356D01*
X132032742Y-105817182D01*
X131989286Y-105800779D01*
X131989286Y-105862966D01*
X131993128Y-105905283D01*
X132008177Y-105940969D01*
X132039720Y-105981943D01*
X132044408Y-105987267D01*
X132079494Y-106023720D01*
X132109653Y-106043283D01*
X132147385Y-106052283D01*
X132178665Y-106055230D01*
X132234615Y-106055965D01*
X132274445Y-106046660D01*
X132299292Y-106032846D01*
X132338344Y-106002467D01*
X132365375Y-105969613D01*
X132382483Y-105928294D01*
X132391762Y-105872521D01*
X132395307Y-105796305D01*
X132395590Y-105757622D01*
X132394628Y-105711247D01*
X132306993Y-105711247D01*
X132305977Y-105736126D01*
X132303444Y-105740200D01*
X132286726Y-105734665D01*
X132250751Y-105720017D01*
X132202669Y-105699190D01*
X132192614Y-105694714D01*
X132131848Y-105663814D01*
X132098368Y-105636657D01*
X132091010Y-105611220D01*
X132108609Y-105585481D01*
X132123144Y-105574109D01*
X132175590Y-105551364D01*
X132224678Y-105555122D01*
X132265773Y-105582884D01*
X132294242Y-105632152D01*
X132303369Y-105671257D01*
X132306993Y-105711247D01*
X132394628Y-105711247D01*
X132393715Y-105667249D01*
X132386804Y-105600384D01*
X132373116Y-105551695D01*
X132350904Y-105515849D01*
X132318426Y-105487513D01*
X132304267Y-105478355D01*
X132239947Y-105454507D01*
X132169527Y-105453006D01*
X132101405Y-105471966D01*
G36*
X132602400Y-105463752D02*
G01*
X132585052Y-105471334D01*
X132543644Y-105504128D01*
X132508235Y-105551547D01*
X132486336Y-105602151D01*
X132482771Y-105627098D01*
X132494721Y-105661927D01*
X132520933Y-105680357D01*
X132549036Y-105691516D01*
X132561905Y-105693572D01*
X132568171Y-105678649D01*
X132580544Y-105646175D01*
X132585972Y-105631502D01*
X132616410Y-105580744D01*
X132660480Y-105555427D01*
X132716990Y-105556206D01*
X132721175Y-105557203D01*
X132751345Y-105571507D01*
X132773524Y-105599393D01*
X132788673Y-105644287D01*
X132797750Y-105709615D01*
X132801714Y-105798804D01*
X132802086Y-105846261D01*
X132802270Y-105921071D01*
X132803478Y-105972069D01*
X132806691Y-106004471D01*
X132812891Y-106023495D01*
X132823060Y-106034356D01*
X132838181Y-106042272D01*
X132839054Y-106042670D01*
X132868172Y-106054981D01*
X132882597Y-106059514D01*
X132884814Y-106045809D01*
X132886711Y-106007925D01*
X132888153Y-105950715D01*
X132889002Y-105879027D01*
X132889171Y-105826565D01*
X132888308Y-105725047D01*
X132884930Y-105648032D01*
X132877858Y-105591023D01*
X132865912Y-105549526D01*
X132847910Y-105519043D01*
X132822673Y-105495080D01*
X132797753Y-105478355D01*
X132737829Y-105456097D01*
X132668089Y-105451076D01*
X132602400Y-105463752D01*
G37*
X132602400Y-105463752D02*
X132585052Y-105471334D01*
X132543644Y-105504128D01*
X132508235Y-105551547D01*
X132486336Y-105602151D01*
X132482771Y-105627098D01*
X132494721Y-105661927D01*
X132520933Y-105680357D01*
X132549036Y-105691516D01*
X132561905Y-105693572D01*
X132568171Y-105678649D01*
X132580544Y-105646175D01*
X132585972Y-105631502D01*
X132616410Y-105580744D01*
X132660480Y-105555427D01*
X132716990Y-105556206D01*
X132721175Y-105557203D01*
X132751345Y-105571507D01*
X132773524Y-105599393D01*
X132788673Y-105644287D01*
X132797750Y-105709615D01*
X132801714Y-105798804D01*
X132802086Y-105846261D01*
X132802270Y-105921071D01*
X132803478Y-105972069D01*
X132806691Y-106004471D01*
X132812891Y-106023495D01*
X132823060Y-106034356D01*
X132838181Y-106042272D01*
X132839054Y-106042670D01*
X132868172Y-106054981D01*
X132882597Y-106059514D01*
X132884814Y-106045809D01*
X132886711Y-106007925D01*
X132888153Y-105950715D01*
X132889002Y-105879027D01*
X132889171Y-105826565D01*
X132888308Y-105725047D01*
X132884930Y-105648032D01*
X132877858Y-105591023D01*
X132865912Y-105549526D01*
X132847910Y-105519043D01*
X132822673Y-105495080D01*
X132797753Y-105478355D01*
X132737829Y-105456097D01*
X132668089Y-105451076D01*
X132602400Y-105463752D01*
G36*
X133110124Y-105461335D02*
G01*
X133068333Y-105480344D01*
X133035531Y-105503378D01*
X133011497Y-105529133D01*
X132994903Y-105562358D01*
X132984423Y-105607800D01*
X132978729Y-105670207D01*
X132976493Y-105754327D01*
X132976257Y-105809721D01*
X132976257Y-106025826D01*
X133013226Y-106042670D01*
X133042344Y-106054981D01*
X133056769Y-106059514D01*
X133059528Y-106046025D01*
X133061718Y-106009653D01*
X133063058Y-105956542D01*
X133063343Y-105914372D01*
X133064566Y-105853447D01*
X133067864Y-105805115D01*
X133072679Y-105775518D01*
X133076504Y-105769229D01*
X133102217Y-105775652D01*
X133142582Y-105792125D01*
X133189321Y-105814458D01*
X133234155Y-105838457D01*
X133268807Y-105859930D01*
X133284998Y-105874685D01*
X133285062Y-105874845D01*
X133283670Y-105902152D01*
X133271182Y-105928219D01*
X133249257Y-105949392D01*
X133217257Y-105956474D01*
X133189908Y-105955649D01*
X133151174Y-105955042D01*
X133130842Y-105964116D01*
X133118631Y-105988092D01*
X133117091Y-105992613D01*
X133111797Y-106026806D01*
X133125953Y-106047568D01*
X133162852Y-106057462D01*
X133202711Y-106059292D01*
X133274438Y-106045727D01*
X133311568Y-106026355D01*
X133357424Y-105980845D01*
X133381744Y-105924983D01*
X133383927Y-105865957D01*
X133363371Y-105810953D01*
X133332451Y-105776486D01*
X133301580Y-105757189D01*
X133253058Y-105732759D01*
X133196515Y-105707985D01*
X133187090Y-105704199D01*
X133124981Y-105676791D01*
X133089178Y-105652634D01*
X133077663Y-105628619D01*
X133088420Y-105601635D01*
X133106886Y-105580543D01*
X133150531Y-105554572D01*
X133198554Y-105552624D01*
X133242594Y-105572637D01*
X133274291Y-105612551D01*
X133278451Y-105622848D01*
X133302673Y-105660724D01*
X133338035Y-105688842D01*
X133382657Y-105711917D01*
X133382657Y-105646485D01*
X133380031Y-105606506D01*
X133368770Y-105574997D01*
X133343801Y-105541378D01*
X133319831Y-105515484D01*
X133282559Y-105478817D01*
X133253599Y-105459121D01*
X133222495Y-105451220D01*
X133187287Y-105449914D01*
X133110124Y-105461335D01*
G37*
X133110124Y-105461335D02*
X133068333Y-105480344D01*
X133035531Y-105503378D01*
X133011497Y-105529133D01*
X132994903Y-105562358D01*
X132984423Y-105607800D01*
X132978729Y-105670207D01*
X132976493Y-105754327D01*
X132976257Y-105809721D01*
X132976257Y-106025826D01*
X133013226Y-106042670D01*
X133042344Y-106054981D01*
X133056769Y-106059514D01*
X133059528Y-106046025D01*
X133061718Y-106009653D01*
X133063058Y-105956542D01*
X133063343Y-105914372D01*
X133064566Y-105853447D01*
X133067864Y-105805115D01*
X133072679Y-105775518D01*
X133076504Y-105769229D01*
X133102217Y-105775652D01*
X133142582Y-105792125D01*
X133189321Y-105814458D01*
X133234155Y-105838457D01*
X133268807Y-105859930D01*
X133284998Y-105874685D01*
X133285062Y-105874845D01*
X133283670Y-105902152D01*
X133271182Y-105928219D01*
X133249257Y-105949392D01*
X133217257Y-105956474D01*
X133189908Y-105955649D01*
X133151174Y-105955042D01*
X133130842Y-105964116D01*
X133118631Y-105988092D01*
X133117091Y-105992613D01*
X133111797Y-106026806D01*
X133125953Y-106047568D01*
X133162852Y-106057462D01*
X133202711Y-106059292D01*
X133274438Y-106045727D01*
X133311568Y-106026355D01*
X133357424Y-105980845D01*
X133381744Y-105924983D01*
X133383927Y-105865957D01*
X133363371Y-105810953D01*
X133332451Y-105776486D01*
X133301580Y-105757189D01*
X133253058Y-105732759D01*
X133196515Y-105707985D01*
X133187090Y-105704199D01*
X133124981Y-105676791D01*
X133089178Y-105652634D01*
X133077663Y-105628619D01*
X133088420Y-105601635D01*
X133106886Y-105580543D01*
X133150531Y-105554572D01*
X133198554Y-105552624D01*
X133242594Y-105572637D01*
X133274291Y-105612551D01*
X133278451Y-105622848D01*
X133302673Y-105660724D01*
X133338035Y-105688842D01*
X133382657Y-105711917D01*
X133382657Y-105646485D01*
X133380031Y-105606506D01*
X133368770Y-105574997D01*
X133343801Y-105541378D01*
X133319831Y-105515484D01*
X133282559Y-105478817D01*
X133253599Y-105459121D01*
X133222495Y-105451220D01*
X133187287Y-105449914D01*
X133110124Y-105461335D01*
G36*
X133475167Y-105463663D02*
G01*
X133472952Y-105501850D01*
X133471216Y-105559886D01*
X133470101Y-105633180D01*
X133469743Y-105710055D01*
X133469743Y-105970196D01*
X133515674Y-106016127D01*
X133547325Y-106044429D01*
X133575110Y-106055893D01*
X133613085Y-106055168D01*
X133628160Y-106053321D01*
X133675274Y-106047948D01*
X133714244Y-106044869D01*
X133723743Y-106044585D01*
X133755767Y-106046445D01*
X133801568Y-106051114D01*
X133819326Y-106053321D01*
X133862943Y-106056735D01*
X133892255Y-106049320D01*
X133921320Y-106026427D01*
X133931812Y-106016127D01*
X133977743Y-105970196D01*
X133977743Y-105483602D01*
X133940774Y-105466758D01*
X133908941Y-105454282D01*
X133890317Y-105449914D01*
X133885542Y-105463718D01*
X133881079Y-105502286D01*
X133877225Y-105561356D01*
X133874278Y-105636663D01*
X133872857Y-105700286D01*
X133868886Y-105950657D01*
X133834241Y-105955556D01*
X133802732Y-105952131D01*
X133787292Y-105941041D01*
X133782977Y-105920308D01*
X133779292Y-105876145D01*
X133776531Y-105814146D01*
X133774988Y-105739909D01*
X133774765Y-105701706D01*
X133774543Y-105481783D01*
X133728834Y-105465849D01*
X133696482Y-105455015D01*
X133678885Y-105449962D01*
X133678377Y-105449914D01*
X133676612Y-105463648D01*
X133674671Y-105501730D01*
X133672718Y-105559482D01*
X133670916Y-105632227D01*
X133669657Y-105700286D01*
X133665686Y-105950657D01*
X133578600Y-105950657D01*
X133574604Y-105722240D01*
X133570608Y-105493822D01*
X133528153Y-105471868D01*
X133496808Y-105456793D01*
X133478256Y-105449951D01*
X133477721Y-105449914D01*
X133475167Y-105463663D01*
G37*
X133475167Y-105463663D02*
X133472952Y-105501850D01*
X133471216Y-105559886D01*
X133470101Y-105633180D01*
X133469743Y-105710055D01*
X133469743Y-105970196D01*
X133515674Y-106016127D01*
X133547325Y-106044429D01*
X133575110Y-106055893D01*
X133613085Y-106055168D01*
X133628160Y-106053321D01*
X133675274Y-106047948D01*
X133714244Y-106044869D01*
X133723743Y-106044585D01*
X133755767Y-106046445D01*
X133801568Y-106051114D01*
X133819326Y-106053321D01*
X133862943Y-106056735D01*
X133892255Y-106049320D01*
X133921320Y-106026427D01*
X133931812Y-106016127D01*
X133977743Y-105970196D01*
X133977743Y-105483602D01*
X133940774Y-105466758D01*
X133908941Y-105454282D01*
X133890317Y-105449914D01*
X133885542Y-105463718D01*
X133881079Y-105502286D01*
X133877225Y-105561356D01*
X133874278Y-105636663D01*
X133872857Y-105700286D01*
X133868886Y-105950657D01*
X133834241Y-105955556D01*
X133802732Y-105952131D01*
X133787292Y-105941041D01*
X133782977Y-105920308D01*
X133779292Y-105876145D01*
X133776531Y-105814146D01*
X133774988Y-105739909D01*
X133774765Y-105701706D01*
X133774543Y-105481783D01*
X133728834Y-105465849D01*
X133696482Y-105455015D01*
X133678885Y-105449962D01*
X133678377Y-105449914D01*
X133676612Y-105463648D01*
X133674671Y-105501730D01*
X133672718Y-105559482D01*
X133670916Y-105632227D01*
X133669657Y-105700286D01*
X133665686Y-105950657D01*
X133578600Y-105950657D01*
X133574604Y-105722240D01*
X133570608Y-105493822D01*
X133528153Y-105471868D01*
X133496808Y-105456793D01*
X133478256Y-105449951D01*
X133477721Y-105449914D01*
X133475167Y-105463663D01*
G36*
X134064883Y-105570358D02*
G01*
X134065067Y-105678837D01*
X134065781Y-105762287D01*
X134067325Y-105824704D01*
X134069999Y-105870085D01*
X134074106Y-105902429D01*
X134079945Y-105925733D01*
X134087818Y-105943995D01*
X134093779Y-105954418D01*
X134143145Y-106010945D01*
X134205736Y-106046377D01*
X134274987Y-106059090D01*
X134344332Y-106047463D01*
X134385625Y-106026568D01*
X134428975Y-105990422D01*
X134458519Y-105946276D01*
X134476345Y-105888462D01*
X134484537Y-105811313D01*
X134485698Y-105754714D01*
X134485542Y-105750647D01*
X134384143Y-105750647D01*
X134383524Y-105815550D01*
X134380686Y-105858514D01*
X134374160Y-105886622D01*
X134362477Y-105906953D01*
X134348517Y-105922288D01*
X134301635Y-105951890D01*
X134251299Y-105954419D01*
X134203724Y-105929705D01*
X134200021Y-105926356D01*
X134184217Y-105908935D01*
X134174307Y-105888209D01*
X134168942Y-105857362D01*
X134166772Y-105809577D01*
X134166429Y-105756748D01*
X134167173Y-105690381D01*
X134170252Y-105646106D01*
X134176939Y-105617009D01*
X134188504Y-105596173D01*
X134197987Y-105585107D01*
X134242040Y-105557198D01*
X134292776Y-105553843D01*
X134341204Y-105575159D01*
X134350550Y-105583073D01*
X134366460Y-105600647D01*
X134376390Y-105621587D01*
X134381722Y-105652782D01*
X134383837Y-105701122D01*
X134384143Y-105750647D01*
X134485542Y-105750647D01*
X134482190Y-105663568D01*
X134470274Y-105595086D01*
X134447865Y-105543600D01*
X134412876Y-105503443D01*
X134385625Y-105482861D01*
X134336093Y-105460625D01*
X134278684Y-105450304D01*
X134225318Y-105453067D01*
X134195457Y-105464212D01*
X134183739Y-105467383D01*
X134175963Y-105455557D01*
X134170535Y-105423866D01*
X134166429Y-105375593D01*
X134161933Y-105321829D01*
X134155687Y-105289482D01*
X134144324Y-105270985D01*
X134124472Y-105258770D01*
X134112000Y-105253362D01*
X134064829Y-105233601D01*
X134064883Y-105570358D01*
G37*
X134064883Y-105570358D02*
X134065067Y-105678837D01*
X134065781Y-105762287D01*
X134067325Y-105824704D01*
X134069999Y-105870085D01*
X134074106Y-105902429D01*
X134079945Y-105925733D01*
X134087818Y-105943995D01*
X134093779Y-105954418D01*
X134143145Y-106010945D01*
X134205736Y-106046377D01*
X134274987Y-106059090D01*
X134344332Y-106047463D01*
X134385625Y-106026568D01*
X134428975Y-105990422D01*
X134458519Y-105946276D01*
X134476345Y-105888462D01*
X134484537Y-105811313D01*
X134485698Y-105754714D01*
X134485542Y-105750647D01*
X134384143Y-105750647D01*
X134383524Y-105815550D01*
X134380686Y-105858514D01*
X134374160Y-105886622D01*
X134362477Y-105906953D01*
X134348517Y-105922288D01*
X134301635Y-105951890D01*
X134251299Y-105954419D01*
X134203724Y-105929705D01*
X134200021Y-105926356D01*
X134184217Y-105908935D01*
X134174307Y-105888209D01*
X134168942Y-105857362D01*
X134166772Y-105809577D01*
X134166429Y-105756748D01*
X134167173Y-105690381D01*
X134170252Y-105646106D01*
X134176939Y-105617009D01*
X134188504Y-105596173D01*
X134197987Y-105585107D01*
X134242040Y-105557198D01*
X134292776Y-105553843D01*
X134341204Y-105575159D01*
X134350550Y-105583073D01*
X134366460Y-105600647D01*
X134376390Y-105621587D01*
X134381722Y-105652782D01*
X134383837Y-105701122D01*
X134384143Y-105750647D01*
X134485542Y-105750647D01*
X134482190Y-105663568D01*
X134470274Y-105595086D01*
X134447865Y-105543600D01*
X134412876Y-105503443D01*
X134385625Y-105482861D01*
X134336093Y-105460625D01*
X134278684Y-105450304D01*
X134225318Y-105453067D01*
X134195457Y-105464212D01*
X134183739Y-105467383D01*
X134175963Y-105455557D01*
X134170535Y-105423866D01*
X134166429Y-105375593D01*
X134161933Y-105321829D01*
X134155687Y-105289482D01*
X134144324Y-105270985D01*
X134124472Y-105258770D01*
X134112000Y-105253362D01*
X134064829Y-105233601D01*
X134064883Y-105570358D01*
G36*
X134725074Y-105454755D02*
G01*
X134659142Y-105479084D01*
X134605727Y-105522117D01*
X134584836Y-105552409D01*
X134562061Y-105607994D01*
X134562534Y-105648186D01*
X134586438Y-105675217D01*
X134595283Y-105679813D01*
X134633470Y-105694144D01*
X134652972Y-105690472D01*
X134659578Y-105666407D01*
X134659914Y-105653114D01*
X134672008Y-105604210D01*
X134703529Y-105569999D01*
X134747341Y-105553476D01*
X134796305Y-105557634D01*
X134836106Y-105579227D01*
X134849550Y-105591544D01*
X134859079Y-105606487D01*
X134865515Y-105629075D01*
X134869683Y-105664328D01*
X134872403Y-105717266D01*
X134874498Y-105792907D01*
X134875040Y-105816857D01*
X134877019Y-105898790D01*
X134879269Y-105956455D01*
X134882643Y-105994608D01*
X134887994Y-106018004D01*
X134896176Y-106031398D01*
X134908041Y-106039545D01*
X134915638Y-106043144D01*
X134947898Y-106055452D01*
X134966889Y-106059514D01*
X134973164Y-106045948D01*
X134976994Y-106004934D01*
X134978400Y-105935999D01*
X134977402Y-105838669D01*
X134977092Y-105823657D01*
X134974899Y-105734859D01*
X134972307Y-105670019D01*
X134968618Y-105624067D01*
X134963136Y-105591935D01*
X134955165Y-105568553D01*
X134944007Y-105548852D01*
X134938170Y-105540410D01*
X134904704Y-105503057D01*
X134867273Y-105474003D01*
X134862691Y-105471467D01*
X134795574Y-105451443D01*
X134725074Y-105454755D01*
G37*
X134725074Y-105454755D02*
X134659142Y-105479084D01*
X134605727Y-105522117D01*
X134584836Y-105552409D01*
X134562061Y-105607994D01*
X134562534Y-105648186D01*
X134586438Y-105675217D01*
X134595283Y-105679813D01*
X134633470Y-105694144D01*
X134652972Y-105690472D01*
X134659578Y-105666407D01*
X134659914Y-105653114D01*
X134672008Y-105604210D01*
X134703529Y-105569999D01*
X134747341Y-105553476D01*
X134796305Y-105557634D01*
X134836106Y-105579227D01*
X134849550Y-105591544D01*
X134859079Y-105606487D01*
X134865515Y-105629075D01*
X134869683Y-105664328D01*
X134872403Y-105717266D01*
X134874498Y-105792907D01*
X134875040Y-105816857D01*
X134877019Y-105898790D01*
X134879269Y-105956455D01*
X134882643Y-105994608D01*
X134887994Y-106018004D01*
X134896176Y-106031398D01*
X134908041Y-106039545D01*
X134915638Y-106043144D01*
X134947898Y-106055452D01*
X134966889Y-106059514D01*
X134973164Y-106045948D01*
X134976994Y-106004934D01*
X134978400Y-105935999D01*
X134977402Y-105838669D01*
X134977092Y-105823657D01*
X134974899Y-105734859D01*
X134972307Y-105670019D01*
X134968618Y-105624067D01*
X134963136Y-105591935D01*
X134955165Y-105568553D01*
X134944007Y-105548852D01*
X134938170Y-105540410D01*
X134904704Y-105503057D01*
X134867273Y-105474003D01*
X134862691Y-105471467D01*
X134795574Y-105451443D01*
X134725074Y-105454755D01*
G36*
X135215256Y-105455968D02*
G01*
X135158384Y-105477087D01*
X135157733Y-105477493D01*
X135122560Y-105503380D01*
X135096593Y-105533633D01*
X135078330Y-105573058D01*
X135066268Y-105626462D01*
X135058904Y-105698651D01*
X135054736Y-105794432D01*
X135054371Y-105808078D01*
X135049124Y-106013842D01*
X135093284Y-106036678D01*
X135125237Y-106052110D01*
X135144530Y-106059423D01*
X135145422Y-106059514D01*
X135148761Y-106046022D01*
X135151413Y-106009626D01*
X135153044Y-105956452D01*
X135153400Y-105913393D01*
X135153408Y-105843641D01*
X135156597Y-105799837D01*
X135167712Y-105778944D01*
X135191499Y-105777925D01*
X135232704Y-105793741D01*
X135294914Y-105822815D01*
X135340659Y-105846963D01*
X135364187Y-105867913D01*
X135371104Y-105890747D01*
X135371114Y-105891877D01*
X135359701Y-105931212D01*
X135325908Y-105952462D01*
X135274191Y-105955539D01*
X135236939Y-105955006D01*
X135217297Y-105965735D01*
X135205048Y-105991505D01*
X135197998Y-106024337D01*
X135208158Y-106042966D01*
X135211983Y-106045632D01*
X135247999Y-106056340D01*
X135298434Y-106057856D01*
X135350374Y-106050759D01*
X135387178Y-106037788D01*
X135438062Y-105994585D01*
X135466986Y-105934446D01*
X135472714Y-105887462D01*
X135468343Y-105845082D01*
X135452525Y-105810488D01*
X135421203Y-105779763D01*
X135370322Y-105748990D01*
X135295824Y-105714252D01*
X135291286Y-105712288D01*
X135224179Y-105681287D01*
X135182768Y-105655862D01*
X135165019Y-105633014D01*
X135168893Y-105609745D01*
X135192357Y-105583056D01*
X135199373Y-105576914D01*
X135246370Y-105553100D01*
X135295067Y-105554103D01*
X135337478Y-105577451D01*
X135365616Y-105620675D01*
X135368231Y-105629160D01*
X135393692Y-105670308D01*
X135425999Y-105690128D01*
X135472714Y-105709770D01*
X135472714Y-105658950D01*
X135458504Y-105585082D01*
X135416325Y-105517327D01*
X135394376Y-105494661D01*
X135344483Y-105465569D01*
X135281033Y-105452400D01*
X135215256Y-105455968D01*
G37*
X135215256Y-105455968D02*
X135158384Y-105477087D01*
X135157733Y-105477493D01*
X135122560Y-105503380D01*
X135096593Y-105533633D01*
X135078330Y-105573058D01*
X135066268Y-105626462D01*
X135058904Y-105698651D01*
X135054736Y-105794432D01*
X135054371Y-105808078D01*
X135049124Y-106013842D01*
X135093284Y-106036678D01*
X135125237Y-106052110D01*
X135144530Y-106059423D01*
X135145422Y-106059514D01*
X135148761Y-106046022D01*
X135151413Y-106009626D01*
X135153044Y-105956452D01*
X135153400Y-105913393D01*
X135153408Y-105843641D01*
X135156597Y-105799837D01*
X135167712Y-105778944D01*
X135191499Y-105777925D01*
X135232704Y-105793741D01*
X135294914Y-105822815D01*
X135340659Y-105846963D01*
X135364187Y-105867913D01*
X135371104Y-105890747D01*
X135371114Y-105891877D01*
X135359701Y-105931212D01*
X135325908Y-105952462D01*
X135274191Y-105955539D01*
X135236939Y-105955006D01*
X135217297Y-105965735D01*
X135205048Y-105991505D01*
X135197998Y-106024337D01*
X135208158Y-106042966D01*
X135211983Y-106045632D01*
X135247999Y-106056340D01*
X135298434Y-106057856D01*
X135350374Y-106050759D01*
X135387178Y-106037788D01*
X135438062Y-105994585D01*
X135466986Y-105934446D01*
X135472714Y-105887462D01*
X135468343Y-105845082D01*
X135452525Y-105810488D01*
X135421203Y-105779763D01*
X135370322Y-105748990D01*
X135295824Y-105714252D01*
X135291286Y-105712288D01*
X135224179Y-105681287D01*
X135182768Y-105655862D01*
X135165019Y-105633014D01*
X135168893Y-105609745D01*
X135192357Y-105583056D01*
X135199373Y-105576914D01*
X135246370Y-105553100D01*
X135295067Y-105554103D01*
X135337478Y-105577451D01*
X135365616Y-105620675D01*
X135368231Y-105629160D01*
X135393692Y-105670308D01*
X135425999Y-105690128D01*
X135472714Y-105709770D01*
X135472714Y-105658950D01*
X135458504Y-105585082D01*
X135416325Y-105517327D01*
X135394376Y-105494661D01*
X135344483Y-105465569D01*
X135281033Y-105452400D01*
X135215256Y-105455968D01*
G36*
X135879114Y-105356289D02*
G01*
X135874861Y-105415613D01*
X135869975Y-105450572D01*
X135863205Y-105465820D01*
X135853298Y-105466015D01*
X135850086Y-105464195D01*
X135807356Y-105451015D01*
X135751773Y-105451785D01*
X135695263Y-105465333D01*
X135659918Y-105482861D01*
X135623679Y-105510861D01*
X135597187Y-105542549D01*
X135579001Y-105582813D01*
X135567678Y-105636543D01*
X135561778Y-105708626D01*
X135559857Y-105803951D01*
X135559823Y-105822237D01*
X135559800Y-106027646D01*
X135605509Y-106043580D01*
X135637973Y-106054420D01*
X135655785Y-106059468D01*
X135656309Y-106059514D01*
X135658063Y-106045828D01*
X135659556Y-106008076D01*
X135660674Y-105951224D01*
X135661303Y-105880234D01*
X135661400Y-105837073D01*
X135661602Y-105751973D01*
X135662642Y-105690981D01*
X135665169Y-105649177D01*
X135669836Y-105621642D01*
X135677293Y-105603456D01*
X135688189Y-105589698D01*
X135694993Y-105583073D01*
X135741728Y-105556375D01*
X135792728Y-105554375D01*
X135838999Y-105576955D01*
X135847556Y-105585107D01*
X135860107Y-105600436D01*
X135868812Y-105618618D01*
X135874369Y-105644909D01*
X135877474Y-105684562D01*
X135878824Y-105742832D01*
X135879114Y-105823173D01*
X135879114Y-106027646D01*
X135924823Y-106043580D01*
X135957287Y-106054420D01*
X135975099Y-106059468D01*
X135975623Y-106059514D01*
X135976963Y-106045623D01*
X135978172Y-106006439D01*
X135979199Y-105945700D01*
X135979998Y-105867141D01*
X135980519Y-105774498D01*
X135980714Y-105671509D01*
X135980714Y-105274342D01*
X135933543Y-105254444D01*
X135886371Y-105234547D01*
X135879114Y-105356289D01*
G37*
X135879114Y-105356289D02*
X135874861Y-105415613D01*
X135869975Y-105450572D01*
X135863205Y-105465820D01*
X135853298Y-105466015D01*
X135850086Y-105464195D01*
X135807356Y-105451015D01*
X135751773Y-105451785D01*
X135695263Y-105465333D01*
X135659918Y-105482861D01*
X135623679Y-105510861D01*
X135597187Y-105542549D01*
X135579001Y-105582813D01*
X135567678Y-105636543D01*
X135561778Y-105708626D01*
X135559857Y-105803951D01*
X135559823Y-105822237D01*
X135559800Y-106027646D01*
X135605509Y-106043580D01*
X135637973Y-106054420D01*
X135655785Y-106059468D01*
X135656309Y-106059514D01*
X135658063Y-106045828D01*
X135659556Y-106008076D01*
X135660674Y-105951224D01*
X135661303Y-105880234D01*
X135661400Y-105837073D01*
X135661602Y-105751973D01*
X135662642Y-105690981D01*
X135665169Y-105649177D01*
X135669836Y-105621642D01*
X135677293Y-105603456D01*
X135688189Y-105589698D01*
X135694993Y-105583073D01*
X135741728Y-105556375D01*
X135792728Y-105554375D01*
X135838999Y-105576955D01*
X135847556Y-105585107D01*
X135860107Y-105600436D01*
X135868812Y-105618618D01*
X135874369Y-105644909D01*
X135877474Y-105684562D01*
X135878824Y-105742832D01*
X135879114Y-105823173D01*
X135879114Y-106027646D01*
X135924823Y-106043580D01*
X135957287Y-106054420D01*
X135975099Y-106059468D01*
X135975623Y-106059514D01*
X135976963Y-106045623D01*
X135978172Y-106006439D01*
X135979199Y-105945700D01*
X135979998Y-105867141D01*
X135980519Y-105774498D01*
X135980714Y-105671509D01*
X135980714Y-105274342D01*
X135933543Y-105254444D01*
X135886371Y-105234547D01*
X135879114Y-105356289D01*
G36*
X137086697Y-105436239D02*
G01*
X137029473Y-105474735D01*
X136985251Y-105530335D01*
X136958833Y-105601086D01*
X136953490Y-105653162D01*
X136954097Y-105674893D01*
X136959178Y-105691531D01*
X136973145Y-105706437D01*
X137000411Y-105722973D01*
X137045388Y-105744498D01*
X137112489Y-105774374D01*
X137112829Y-105774524D01*
X137174593Y-105802813D01*
X137225241Y-105827933D01*
X137259596Y-105847179D01*
X137272482Y-105857848D01*
X137272486Y-105857934D01*
X137261128Y-105881166D01*
X137234569Y-105906774D01*
X137204077Y-105925221D01*
X137188630Y-105928886D01*
X137146485Y-105916212D01*
X137110192Y-105884471D01*
X137092483Y-105849572D01*
X137075448Y-105823845D01*
X137042078Y-105794546D01*
X137002851Y-105769235D01*
X136968244Y-105755471D01*
X136961007Y-105754714D01*
X136952861Y-105767160D01*
X136952370Y-105798972D01*
X136958357Y-105841866D01*
X136969643Y-105887558D01*
X136985050Y-105927761D01*
X136985829Y-105929322D01*
X137032196Y-105994062D01*
X137092289Y-106038097D01*
X137160535Y-106059711D01*
X137231362Y-106057185D01*
X137299196Y-106028804D01*
X137302212Y-106026808D01*
X137355573Y-105978448D01*
X137390660Y-105915352D01*
X137410078Y-105832387D01*
X137412684Y-105809078D01*
X137417299Y-105699055D01*
X137411767Y-105647748D01*
X137272486Y-105647748D01*
X137270676Y-105679753D01*
X137260778Y-105689093D01*
X137236102Y-105682105D01*
X137197205Y-105665587D01*
X137153725Y-105644881D01*
X137152644Y-105644333D01*
X137115791Y-105624949D01*
X137101000Y-105612013D01*
X137104647Y-105598451D01*
X137120005Y-105580632D01*
X137159077Y-105554845D01*
X137201154Y-105552950D01*
X137238897Y-105571717D01*
X137264966Y-105607915D01*
X137272486Y-105647748D01*
X137411767Y-105647748D01*
X137407806Y-105611027D01*
X137383450Y-105541212D01*
X137349544Y-105492302D01*
X137288347Y-105442878D01*
X137220937Y-105418359D01*
X137152120Y-105416797D01*
X137086697Y-105436239D01*
G37*
X137086697Y-105436239D02*
X137029473Y-105474735D01*
X136985251Y-105530335D01*
X136958833Y-105601086D01*
X136953490Y-105653162D01*
X136954097Y-105674893D01*
X136959178Y-105691531D01*
X136973145Y-105706437D01*
X137000411Y-105722973D01*
X137045388Y-105744498D01*
X137112489Y-105774374D01*
X137112829Y-105774524D01*
X137174593Y-105802813D01*
X137225241Y-105827933D01*
X137259596Y-105847179D01*
X137272482Y-105857848D01*
X137272486Y-105857934D01*
X137261128Y-105881166D01*
X137234569Y-105906774D01*
X137204077Y-105925221D01*
X137188630Y-105928886D01*
X137146485Y-105916212D01*
X137110192Y-105884471D01*
X137092483Y-105849572D01*
X137075448Y-105823845D01*
X137042078Y-105794546D01*
X137002851Y-105769235D01*
X136968244Y-105755471D01*
X136961007Y-105754714D01*
X136952861Y-105767160D01*
X136952370Y-105798972D01*
X136958357Y-105841866D01*
X136969643Y-105887558D01*
X136985050Y-105927761D01*
X136985829Y-105929322D01*
X137032196Y-105994062D01*
X137092289Y-106038097D01*
X137160535Y-106059711D01*
X137231362Y-106057185D01*
X137299196Y-106028804D01*
X137302212Y-106026808D01*
X137355573Y-105978448D01*
X137390660Y-105915352D01*
X137410078Y-105832387D01*
X137412684Y-105809078D01*
X137417299Y-105699055D01*
X137411767Y-105647748D01*
X137272486Y-105647748D01*
X137270676Y-105679753D01*
X137260778Y-105689093D01*
X137236102Y-105682105D01*
X137197205Y-105665587D01*
X137153725Y-105644881D01*
X137152644Y-105644333D01*
X137115791Y-105624949D01*
X137101000Y-105612013D01*
X137104647Y-105598451D01*
X137120005Y-105580632D01*
X137159077Y-105554845D01*
X137201154Y-105552950D01*
X137238897Y-105571717D01*
X137264966Y-105607915D01*
X137272486Y-105647748D01*
X137411767Y-105647748D01*
X137407806Y-105611027D01*
X137383450Y-105541212D01*
X137349544Y-105492302D01*
X137288347Y-105442878D01*
X137220937Y-105418359D01*
X137152120Y-105416797D01*
X137086697Y-105436239D01*
G36*
X138213885Y-105426962D02*
G01*
X138145855Y-105462733D01*
X138095649Y-105520301D01*
X138077815Y-105557312D01*
X138063937Y-105612882D01*
X138056833Y-105683096D01*
X138056160Y-105759727D01*
X138061573Y-105834552D01*
X138072730Y-105899342D01*
X138089286Y-105945873D01*
X138094374Y-105953887D01*
X138154645Y-106013707D01*
X138226231Y-106049535D01*
X138303908Y-106060020D01*
X138382452Y-106043810D01*
X138404311Y-106034092D01*
X138446878Y-106004143D01*
X138484237Y-105964433D01*
X138487768Y-105959397D01*
X138502119Y-105935124D01*
X138511606Y-105909178D01*
X138517210Y-105875022D01*
X138519914Y-105826119D01*
X138520701Y-105755935D01*
X138520714Y-105740200D01*
X138520678Y-105735192D01*
X138375571Y-105735192D01*
X138374727Y-105801430D01*
X138371404Y-105845386D01*
X138364417Y-105873779D01*
X138352584Y-105893325D01*
X138346543Y-105899857D01*
X138311814Y-105924680D01*
X138278097Y-105923548D01*
X138244005Y-105902016D01*
X138223671Y-105879029D01*
X138211629Y-105845478D01*
X138204866Y-105792569D01*
X138204402Y-105786399D01*
X138203248Y-105690513D01*
X138215312Y-105619299D01*
X138240430Y-105573194D01*
X138278440Y-105552635D01*
X138292008Y-105551514D01*
X138327636Y-105557152D01*
X138352006Y-105576686D01*
X138366907Y-105614042D01*
X138374125Y-105673150D01*
X138375571Y-105735192D01*
X138520678Y-105735192D01*
X138520174Y-105665413D01*
X138517904Y-105613159D01*
X138512932Y-105576949D01*
X138504287Y-105550299D01*
X138490995Y-105526722D01*
X138488057Y-105522338D01*
X138438687Y-105463249D01*
X138384891Y-105428947D01*
X138319398Y-105415331D01*
X138297158Y-105414665D01*
X138213885Y-105426962D01*
G37*
X138213885Y-105426962D02*
X138145855Y-105462733D01*
X138095649Y-105520301D01*
X138077815Y-105557312D01*
X138063937Y-105612882D01*
X138056833Y-105683096D01*
X138056160Y-105759727D01*
X138061573Y-105834552D01*
X138072730Y-105899342D01*
X138089286Y-105945873D01*
X138094374Y-105953887D01*
X138154645Y-106013707D01*
X138226231Y-106049535D01*
X138303908Y-106060020D01*
X138382452Y-106043810D01*
X138404311Y-106034092D01*
X138446878Y-106004143D01*
X138484237Y-105964433D01*
X138487768Y-105959397D01*
X138502119Y-105935124D01*
X138511606Y-105909178D01*
X138517210Y-105875022D01*
X138519914Y-105826119D01*
X138520701Y-105755935D01*
X138520714Y-105740200D01*
X138520678Y-105735192D01*
X138375571Y-105735192D01*
X138374727Y-105801430D01*
X138371404Y-105845386D01*
X138364417Y-105873779D01*
X138352584Y-105893325D01*
X138346543Y-105899857D01*
X138311814Y-105924680D01*
X138278097Y-105923548D01*
X138244005Y-105902016D01*
X138223671Y-105879029D01*
X138211629Y-105845478D01*
X138204866Y-105792569D01*
X138204402Y-105786399D01*
X138203248Y-105690513D01*
X138215312Y-105619299D01*
X138240430Y-105573194D01*
X138278440Y-105552635D01*
X138292008Y-105551514D01*
X138327636Y-105557152D01*
X138352006Y-105576686D01*
X138366907Y-105614042D01*
X138374125Y-105673150D01*
X138375571Y-105735192D01*
X138520678Y-105735192D01*
X138520174Y-105665413D01*
X138517904Y-105613159D01*
X138512932Y-105576949D01*
X138504287Y-105550299D01*
X138490995Y-105526722D01*
X138488057Y-105522338D01*
X138438687Y-105463249D01*
X138384891Y-105428947D01*
X138319398Y-105415331D01*
X138297158Y-105414665D01*
X138213885Y-105426962D01*
G36*
X136538907Y-105432780D02*
G01*
X136492328Y-105459723D01*
X136459943Y-105486466D01*
X136436258Y-105514484D01*
X136419941Y-105548748D01*
X136409661Y-105594227D01*
X136404086Y-105655892D01*
X136401884Y-105738711D01*
X136401629Y-105798246D01*
X136401629Y-106017391D01*
X136463314Y-106045044D01*
X136525000Y-106072697D01*
X136532257Y-105832670D01*
X136535256Y-105743028D01*
X136538402Y-105677962D01*
X136542299Y-105633026D01*
X136547553Y-105603770D01*
X136554769Y-105585748D01*
X136564550Y-105574511D01*
X136567688Y-105572079D01*
X136615239Y-105553083D01*
X136663303Y-105560600D01*
X136691914Y-105580543D01*
X136703553Y-105594675D01*
X136711609Y-105613220D01*
X136716729Y-105641334D01*
X136719559Y-105684173D01*
X136720744Y-105746895D01*
X136720943Y-105812261D01*
X136720982Y-105894268D01*
X136722386Y-105952316D01*
X136727086Y-105991465D01*
X136737013Y-106016780D01*
X136754097Y-106033323D01*
X136780268Y-106046156D01*
X136815225Y-106059491D01*
X136853404Y-106074007D01*
X136848859Y-105816389D01*
X136847029Y-105723519D01*
X136844888Y-105654889D01*
X136841819Y-105605711D01*
X136837206Y-105571198D01*
X136830432Y-105546562D01*
X136820881Y-105527016D01*
X136809366Y-105509770D01*
X136753810Y-105454680D01*
X136686020Y-105422822D01*
X136612287Y-105415191D01*
X136538907Y-105432780D01*
G37*
X136538907Y-105432780D02*
X136492328Y-105459723D01*
X136459943Y-105486466D01*
X136436258Y-105514484D01*
X136419941Y-105548748D01*
X136409661Y-105594227D01*
X136404086Y-105655892D01*
X136401884Y-105738711D01*
X136401629Y-105798246D01*
X136401629Y-106017391D01*
X136463314Y-106045044D01*
X136525000Y-106072697D01*
X136532257Y-105832670D01*
X136535256Y-105743028D01*
X136538402Y-105677962D01*
X136542299Y-105633026D01*
X136547553Y-105603770D01*
X136554769Y-105585748D01*
X136564550Y-105574511D01*
X136567688Y-105572079D01*
X136615239Y-105553083D01*
X136663303Y-105560600D01*
X136691914Y-105580543D01*
X136703553Y-105594675D01*
X136711609Y-105613220D01*
X136716729Y-105641334D01*
X136719559Y-105684173D01*
X136720744Y-105746895D01*
X136720943Y-105812261D01*
X136720982Y-105894268D01*
X136722386Y-105952316D01*
X136727086Y-105991465D01*
X136737013Y-106016780D01*
X136754097Y-106033323D01*
X136780268Y-106046156D01*
X136815225Y-106059491D01*
X136853404Y-106074007D01*
X136848859Y-105816389D01*
X136847029Y-105723519D01*
X136844888Y-105654889D01*
X136841819Y-105605711D01*
X136837206Y-105571198D01*
X136830432Y-105546562D01*
X136820881Y-105527016D01*
X136809366Y-105509770D01*
X136753810Y-105454680D01*
X136686020Y-105422822D01*
X136612287Y-105415191D01*
X136538907Y-105432780D01*
G36*
X137655256Y-105424918D02*
G01*
X137599799Y-105452568D01*
X137550852Y-105503480D01*
X137537371Y-105522338D01*
X137522686Y-105547015D01*
X137513158Y-105573816D01*
X137507707Y-105609587D01*
X137505253Y-105661169D01*
X137504714Y-105729267D01*
X137507148Y-105822588D01*
X137515606Y-105892657D01*
X137531826Y-105944931D01*
X137557546Y-105984869D01*
X137594503Y-106017929D01*
X137597218Y-106019886D01*
X137633640Y-106039908D01*
X137677498Y-106049815D01*
X137733276Y-106052257D01*
X137823952Y-106052257D01*
X137823990Y-106140283D01*
X137824834Y-106189308D01*
X137829976Y-106218065D01*
X137843413Y-106235311D01*
X137869142Y-106249808D01*
X137875321Y-106252769D01*
X137904236Y-106266648D01*
X137926624Y-106275414D01*
X137943271Y-106276171D01*
X137954964Y-106266023D01*
X137962490Y-106242073D01*
X137966634Y-106201426D01*
X137968185Y-106141186D01*
X137967929Y-106058455D01*
X137966651Y-105950339D01*
X137966252Y-105918000D01*
X137964815Y-105806524D01*
X137963528Y-105733603D01*
X137824029Y-105733603D01*
X137823245Y-105795499D01*
X137819760Y-105835997D01*
X137811876Y-105862708D01*
X137797895Y-105883244D01*
X137788403Y-105893260D01*
X137749596Y-105922567D01*
X137715237Y-105924952D01*
X137679784Y-105900750D01*
X137678886Y-105899857D01*
X137664461Y-105881153D01*
X137655687Y-105855732D01*
X137651261Y-105816584D01*
X137649882Y-105756697D01*
X137649857Y-105743430D01*
X137653188Y-105660901D01*
X137664031Y-105603691D01*
X137683660Y-105568766D01*
X137713350Y-105553094D01*
X137730509Y-105551514D01*
X137771234Y-105558926D01*
X137799168Y-105583330D01*
X137815983Y-105627980D01*
X137823350Y-105696130D01*
X137824029Y-105733603D01*
X137963528Y-105733603D01*
X137963292Y-105720245D01*
X137961323Y-105655333D01*
X137958550Y-105607958D01*
X137954612Y-105574290D01*
X137949151Y-105550498D01*
X137941808Y-105532753D01*
X137932223Y-105517224D01*
X137928113Y-105511381D01*
X137873595Y-105456185D01*
X137804664Y-105424890D01*
X137724928Y-105416165D01*
X137655256Y-105424918D01*
G37*
X137655256Y-105424918D02*
X137599799Y-105452568D01*
X137550852Y-105503480D01*
X137537371Y-105522338D01*
X137522686Y-105547015D01*
X137513158Y-105573816D01*
X137507707Y-105609587D01*
X137505253Y-105661169D01*
X137504714Y-105729267D01*
X137507148Y-105822588D01*
X137515606Y-105892657D01*
X137531826Y-105944931D01*
X137557546Y-105984869D01*
X137594503Y-106017929D01*
X137597218Y-106019886D01*
X137633640Y-106039908D01*
X137677498Y-106049815D01*
X137733276Y-106052257D01*
X137823952Y-106052257D01*
X137823990Y-106140283D01*
X137824834Y-106189308D01*
X137829976Y-106218065D01*
X137843413Y-106235311D01*
X137869142Y-106249808D01*
X137875321Y-106252769D01*
X137904236Y-106266648D01*
X137926624Y-106275414D01*
X137943271Y-106276171D01*
X137954964Y-106266023D01*
X137962490Y-106242073D01*
X137966634Y-106201426D01*
X137968185Y-106141186D01*
X137967929Y-106058455D01*
X137966651Y-105950339D01*
X137966252Y-105918000D01*
X137964815Y-105806524D01*
X137963528Y-105733603D01*
X137824029Y-105733603D01*
X137823245Y-105795499D01*
X137819760Y-105835997D01*
X137811876Y-105862708D01*
X137797895Y-105883244D01*
X137788403Y-105893260D01*
X137749596Y-105922567D01*
X137715237Y-105924952D01*
X137679784Y-105900750D01*
X137678886Y-105899857D01*
X137664461Y-105881153D01*
X137655687Y-105855732D01*
X137651261Y-105816584D01*
X137649882Y-105756697D01*
X137649857Y-105743430D01*
X137653188Y-105660901D01*
X137664031Y-105603691D01*
X137683660Y-105568766D01*
X137713350Y-105553094D01*
X137730509Y-105551514D01*
X137771234Y-105558926D01*
X137799168Y-105583330D01*
X137815983Y-105627980D01*
X137823350Y-105696130D01*
X137824029Y-105733603D01*
X137963528Y-105733603D01*
X137963292Y-105720245D01*
X137961323Y-105655333D01*
X137958550Y-105607958D01*
X137954612Y-105574290D01*
X137949151Y-105550498D01*
X137941808Y-105532753D01*
X137932223Y-105517224D01*
X137928113Y-105511381D01*
X137873595Y-105456185D01*
X137804664Y-105424890D01*
X137724928Y-105416165D01*
X137655256Y-105424918D01*
D12*
X132330000Y-70350000D02*
G75*
G03X132330000Y-70350000I-950000J0D01*
G01*
X126020000Y-66090000D02*
G75*
G03X126020000Y-66090000I-950000J0D01*
G01*
X155375000Y-105200000D02*
G75*
G03X155375000Y-105200000I-950000J0D01*
G01*
X158050000Y-105200000D02*
G75*
G03X158050000Y-105200000I-950000J0D01*
G01*
X156125000Y-108025000D02*
X156125000Y-109425000D01*
X156825000Y-110125000D02*
X157425000Y-110125000D01*
X158125000Y-109425000D02*
X158125000Y-108025000D01*
X157425000Y-107325000D02*
X156825000Y-107325000D01*
X156825000Y-107325000D02*
G75*
G03X156125000Y-108025000I0J-700000D01*
G01*
X158125000Y-108025000D02*
G75*
G03X157425000Y-107325000I-700000J0D01*
G01*
X157425000Y-110125000D02*
G75*
G03X158125000Y-109425000I0J700000D01*
G01*
X156125000Y-109425000D02*
G75*
G03X156825000Y-110125000I700000J0D01*
G01*
X153550000Y-108025000D02*
X153550000Y-109425000D01*
X154250000Y-110125000D02*
X154850000Y-110125000D01*
X155550000Y-109425000D02*
X155550000Y-108025000D01*
X154850000Y-107325000D02*
X154250000Y-107325000D01*
X154250000Y-107325000D02*
G75*
G03X153550000Y-108025000I0J-700000D01*
G01*
X155550000Y-108025000D02*
G75*
G03X154850000Y-107325000I-700000J0D01*
G01*
X154850000Y-110125000D02*
G75*
G03X155550000Y-109425000I0J700000D01*
G01*
X153550000Y-109425000D02*
G75*
G03X154250000Y-110125000I700000J0D01*
G01*
X138610000Y-79840000D02*
G75*
G03X138610000Y-79840000I-950000J0D01*
G01*
X141320000Y-79810000D02*
G75*
G03X141320000Y-79810000I-950000J0D01*
G01*
X149220000Y-79830000D02*
G75*
G03X149220000Y-79830000I-950000J0D01*
G01*
X143920000Y-79840000D02*
G75*
G03X143920000Y-79840000I-950000J0D01*
G01*
X135450000Y-76900000D02*
G75*
G03X135450000Y-76900000I-950000J0D01*
G01*
X135780000Y-79770000D02*
G75*
G03X135780000Y-79770000I-950000J0D01*
G01*
X138350000Y-69000000D02*
G75*
G03X138350000Y-69000000I-950000J0D01*
G01*
X146510000Y-79850000D02*
G75*
G03X146510000Y-79850000I-950000J0D01*
G01*
X124750000Y-70000000D02*
G75*
G03X124750000Y-70000000I-950000J0D01*
G01*
D13*
X132389523Y-71559904D02*
X131932380Y-71559904D01*
X132160952Y-72359904D02*
X132160952Y-71559904D01*
X131665714Y-72359904D02*
X131665714Y-71559904D01*
X131360952Y-71559904D01*
X131284761Y-71598000D01*
X131246666Y-71636095D01*
X131208571Y-71712285D01*
X131208571Y-71826571D01*
X131246666Y-71902761D01*
X131284761Y-71940857D01*
X131360952Y-71978952D01*
X131665714Y-71978952D01*
X130522857Y-71826571D02*
X130522857Y-72359904D01*
X130713333Y-71521809D02*
X130903809Y-72093238D01*
X130408571Y-72093238D01*
X126079523Y-67299904D02*
X125622380Y-67299904D01*
X125850952Y-68099904D02*
X125850952Y-67299904D01*
X125355714Y-68099904D02*
X125355714Y-67299904D01*
X125050952Y-67299904D01*
X124974761Y-67338000D01*
X124936666Y-67376095D01*
X124898571Y-67452285D01*
X124898571Y-67566571D01*
X124936666Y-67642761D01*
X124974761Y-67680857D01*
X125050952Y-67718952D01*
X125355714Y-67718952D01*
X124631904Y-67299904D02*
X124136666Y-67299904D01*
X124403333Y-67604666D01*
X124289047Y-67604666D01*
X124212857Y-67642761D01*
X124174761Y-67680857D01*
X124136666Y-67757047D01*
X124136666Y-67947523D01*
X124174761Y-68023714D01*
X124212857Y-68061809D01*
X124289047Y-68099904D01*
X124517619Y-68099904D01*
X124593809Y-68061809D01*
X124631904Y-68023714D01*
X155109523Y-102836904D02*
X154652380Y-102836904D01*
X154880952Y-103636904D02*
X154880952Y-102836904D01*
X154385714Y-103636904D02*
X154385714Y-102836904D01*
X154080952Y-102836904D01*
X154004761Y-102875000D01*
X153966666Y-102913095D01*
X153928571Y-102989285D01*
X153928571Y-103103571D01*
X153966666Y-103179761D01*
X154004761Y-103217857D01*
X154080952Y-103255952D01*
X154385714Y-103255952D01*
X153623809Y-102913095D02*
X153585714Y-102875000D01*
X153509523Y-102836904D01*
X153319047Y-102836904D01*
X153242857Y-102875000D01*
X153204761Y-102913095D01*
X153166666Y-102989285D01*
X153166666Y-103065476D01*
X153204761Y-103179761D01*
X153661904Y-103636904D01*
X153166666Y-103636904D01*
X158109523Y-102886904D02*
X157652380Y-102886904D01*
X157880952Y-103686904D02*
X157880952Y-102886904D01*
X157385714Y-103686904D02*
X157385714Y-102886904D01*
X157080952Y-102886904D01*
X157004761Y-102925000D01*
X156966666Y-102963095D01*
X156928571Y-103039285D01*
X156928571Y-103153571D01*
X156966666Y-103229761D01*
X157004761Y-103267857D01*
X157080952Y-103305952D01*
X157385714Y-103305952D01*
X156166666Y-103686904D02*
X156623809Y-103686904D01*
X156395238Y-103686904D02*
X156395238Y-102886904D01*
X156471428Y-103001190D01*
X156547619Y-103077380D01*
X156623809Y-103115476D01*
X160466666Y-108261904D02*
X160466666Y-108833333D01*
X160504761Y-108947619D01*
X160580952Y-109023809D01*
X160695238Y-109061904D01*
X160771428Y-109061904D01*
X160085714Y-109061904D02*
X160085714Y-108261904D01*
X159780952Y-108261904D01*
X159704761Y-108300000D01*
X159666666Y-108338095D01*
X159628571Y-108414285D01*
X159628571Y-108528571D01*
X159666666Y-108604761D01*
X159704761Y-108642857D01*
X159780952Y-108680952D01*
X160085714Y-108680952D01*
X159323809Y-108338095D02*
X159285714Y-108300000D01*
X159209523Y-108261904D01*
X159019047Y-108261904D01*
X158942857Y-108300000D01*
X158904761Y-108338095D01*
X158866666Y-108414285D01*
X158866666Y-108490476D01*
X158904761Y-108604761D01*
X159361904Y-109061904D01*
X158866666Y-109061904D01*
X152666666Y-108261904D02*
X152666666Y-108833333D01*
X152704761Y-108947619D01*
X152780952Y-109023809D01*
X152895238Y-109061904D01*
X152971428Y-109061904D01*
X152285714Y-109061904D02*
X152285714Y-108261904D01*
X151980952Y-108261904D01*
X151904761Y-108300000D01*
X151866666Y-108338095D01*
X151828571Y-108414285D01*
X151828571Y-108528571D01*
X151866666Y-108604761D01*
X151904761Y-108642857D01*
X151980952Y-108680952D01*
X152285714Y-108680952D01*
X151066666Y-109061904D02*
X151523809Y-109061904D01*
X151295238Y-109061904D02*
X151295238Y-108261904D01*
X151371428Y-108376190D01*
X151447619Y-108452380D01*
X151523809Y-108490476D01*
X138609523Y-77661904D02*
X138152380Y-77661904D01*
X138380952Y-78461904D02*
X138380952Y-77661904D01*
X137885714Y-78461904D02*
X137885714Y-77661904D01*
X137580952Y-77661904D01*
X137504761Y-77700000D01*
X137466666Y-77738095D01*
X137428571Y-77814285D01*
X137428571Y-77928571D01*
X137466666Y-78004761D01*
X137504761Y-78042857D01*
X137580952Y-78080952D01*
X137885714Y-78080952D01*
X136704761Y-77661904D02*
X137085714Y-77661904D01*
X137123809Y-78042857D01*
X137085714Y-78004761D01*
X137009523Y-77966666D01*
X136819047Y-77966666D01*
X136742857Y-78004761D01*
X136704761Y-78042857D01*
X136666666Y-78119047D01*
X136666666Y-78309523D01*
X136704761Y-78385714D01*
X136742857Y-78423809D01*
X136819047Y-78461904D01*
X137009523Y-78461904D01*
X137085714Y-78423809D01*
X137123809Y-78385714D01*
X141509523Y-77661904D02*
X141052380Y-77661904D01*
X141280952Y-78461904D02*
X141280952Y-77661904D01*
X140785714Y-78461904D02*
X140785714Y-77661904D01*
X140480952Y-77661904D01*
X140404761Y-77700000D01*
X140366666Y-77738095D01*
X140328571Y-77814285D01*
X140328571Y-77928571D01*
X140366666Y-78004761D01*
X140404761Y-78042857D01*
X140480952Y-78080952D01*
X140785714Y-78080952D01*
X139642857Y-77661904D02*
X139795238Y-77661904D01*
X139871428Y-77700000D01*
X139909523Y-77738095D01*
X139985714Y-77852380D01*
X140023809Y-78004761D01*
X140023809Y-78309523D01*
X139985714Y-78385714D01*
X139947619Y-78423809D01*
X139871428Y-78461904D01*
X139719047Y-78461904D01*
X139642857Y-78423809D01*
X139604761Y-78385714D01*
X139566666Y-78309523D01*
X139566666Y-78119047D01*
X139604761Y-78042857D01*
X139642857Y-78004761D01*
X139719047Y-77966666D01*
X139871428Y-77966666D01*
X139947619Y-78004761D01*
X139985714Y-78042857D01*
X140023809Y-78119047D01*
X151209523Y-78261904D02*
X150752380Y-78261904D01*
X150980952Y-79061904D02*
X150980952Y-78261904D01*
X150485714Y-79061904D02*
X150485714Y-78261904D01*
X150180952Y-78261904D01*
X150104761Y-78300000D01*
X150066666Y-78338095D01*
X150028571Y-78414285D01*
X150028571Y-78528571D01*
X150066666Y-78604761D01*
X150104761Y-78642857D01*
X150180952Y-78680952D01*
X150485714Y-78680952D01*
X149761904Y-78261904D02*
X149228571Y-78261904D01*
X149571428Y-79061904D01*
X144309523Y-77561904D02*
X143852380Y-77561904D01*
X144080952Y-78361904D02*
X144080952Y-77561904D01*
X143585714Y-78361904D02*
X143585714Y-77561904D01*
X143280952Y-77561904D01*
X143204761Y-77600000D01*
X143166666Y-77638095D01*
X143128571Y-77714285D01*
X143128571Y-77828571D01*
X143166666Y-77904761D01*
X143204761Y-77942857D01*
X143280952Y-77980952D01*
X143585714Y-77980952D01*
X142671428Y-77904761D02*
X142747619Y-77866666D01*
X142785714Y-77828571D01*
X142823809Y-77752380D01*
X142823809Y-77714285D01*
X142785714Y-77638095D01*
X142747619Y-77600000D01*
X142671428Y-77561904D01*
X142519047Y-77561904D01*
X142442857Y-77600000D01*
X142404761Y-77638095D01*
X142366666Y-77714285D01*
X142366666Y-77752380D01*
X142404761Y-77828571D01*
X142442857Y-77866666D01*
X142519047Y-77904761D01*
X142671428Y-77904761D01*
X142747619Y-77942857D01*
X142785714Y-77980952D01*
X142823809Y-78057142D01*
X142823809Y-78209523D01*
X142785714Y-78285714D01*
X142747619Y-78323809D01*
X142671428Y-78361904D01*
X142519047Y-78361904D01*
X142442857Y-78323809D01*
X142404761Y-78285714D01*
X142366666Y-78209523D01*
X142366666Y-78057142D01*
X142404761Y-77980952D01*
X142442857Y-77942857D01*
X142519047Y-77904761D01*
X133009523Y-76361904D02*
X132552380Y-76361904D01*
X132780952Y-77161904D02*
X132780952Y-76361904D01*
X132285714Y-77161904D02*
X132285714Y-76361904D01*
X131980952Y-76361904D01*
X131904761Y-76400000D01*
X131866666Y-76438095D01*
X131828571Y-76514285D01*
X131828571Y-76628571D01*
X131866666Y-76704761D01*
X131904761Y-76742857D01*
X131980952Y-76780952D01*
X132285714Y-76780952D01*
X131447619Y-77161904D02*
X131295238Y-77161904D01*
X131219047Y-77123809D01*
X131180952Y-77085714D01*
X131104761Y-76971428D01*
X131066666Y-76819047D01*
X131066666Y-76514285D01*
X131104761Y-76438095D01*
X131142857Y-76400000D01*
X131219047Y-76361904D01*
X131371428Y-76361904D01*
X131447619Y-76400000D01*
X131485714Y-76438095D01*
X131523809Y-76514285D01*
X131523809Y-76704761D01*
X131485714Y-76780952D01*
X131447619Y-76819047D01*
X131371428Y-76857142D01*
X131219047Y-76857142D01*
X131142857Y-76819047D01*
X131104761Y-76780952D01*
X131066666Y-76704761D01*
X133290476Y-79361904D02*
X132833333Y-79361904D01*
X133061904Y-80161904D02*
X133061904Y-79361904D01*
X132566666Y-80161904D02*
X132566666Y-79361904D01*
X132261904Y-79361904D01*
X132185714Y-79400000D01*
X132147619Y-79438095D01*
X132109523Y-79514285D01*
X132109523Y-79628571D01*
X132147619Y-79704761D01*
X132185714Y-79742857D01*
X132261904Y-79780952D01*
X132566666Y-79780952D01*
X131347619Y-80161904D02*
X131804761Y-80161904D01*
X131576190Y-80161904D02*
X131576190Y-79361904D01*
X131652380Y-79476190D01*
X131728571Y-79552380D01*
X131804761Y-79590476D01*
X130852380Y-79361904D02*
X130776190Y-79361904D01*
X130700000Y-79400000D01*
X130661904Y-79438095D01*
X130623809Y-79514285D01*
X130585714Y-79666666D01*
X130585714Y-79857142D01*
X130623809Y-80009523D01*
X130661904Y-80085714D01*
X130700000Y-80123809D01*
X130776190Y-80161904D01*
X130852380Y-80161904D01*
X130928571Y-80123809D01*
X130966666Y-80085714D01*
X131004761Y-80009523D01*
X131042857Y-79857142D01*
X131042857Y-79666666D01*
X131004761Y-79514285D01*
X130966666Y-79438095D01*
X130928571Y-79400000D01*
X130852380Y-79361904D01*
X138790476Y-66913904D02*
X138333333Y-66913904D01*
X138561904Y-67713904D02*
X138561904Y-66913904D01*
X138066666Y-67713904D02*
X138066666Y-66913904D01*
X137761904Y-66913904D01*
X137685714Y-66952000D01*
X137647619Y-66990095D01*
X137609523Y-67066285D01*
X137609523Y-67180571D01*
X137647619Y-67256761D01*
X137685714Y-67294857D01*
X137761904Y-67332952D01*
X138066666Y-67332952D01*
X136847619Y-67713904D02*
X137304761Y-67713904D01*
X137076190Y-67713904D02*
X137076190Y-66913904D01*
X137152380Y-67028190D01*
X137228571Y-67104380D01*
X137304761Y-67142476D01*
X136085714Y-67713904D02*
X136542857Y-67713904D01*
X136314285Y-67713904D02*
X136314285Y-66913904D01*
X136390476Y-67028190D01*
X136466666Y-67104380D01*
X136542857Y-67142476D01*
X147990476Y-77561904D02*
X147533333Y-77561904D01*
X147761904Y-78361904D02*
X147761904Y-77561904D01*
X147266666Y-78361904D02*
X147266666Y-77561904D01*
X146961904Y-77561904D01*
X146885714Y-77600000D01*
X146847619Y-77638095D01*
X146809523Y-77714285D01*
X146809523Y-77828571D01*
X146847619Y-77904761D01*
X146885714Y-77942857D01*
X146961904Y-77980952D01*
X147266666Y-77980952D01*
X146047619Y-78361904D02*
X146504761Y-78361904D01*
X146276190Y-78361904D02*
X146276190Y-77561904D01*
X146352380Y-77676190D01*
X146428571Y-77752380D01*
X146504761Y-77790476D01*
X145742857Y-77638095D02*
X145704761Y-77600000D01*
X145628571Y-77561904D01*
X145438095Y-77561904D01*
X145361904Y-77600000D01*
X145323809Y-77638095D01*
X145285714Y-77714285D01*
X145285714Y-77790476D01*
X145323809Y-77904761D01*
X145780952Y-78361904D01*
X145285714Y-78361904D01*
X126590476Y-71361904D02*
X126133333Y-71361904D01*
X126361904Y-72161904D02*
X126361904Y-71361904D01*
X125866666Y-72161904D02*
X125866666Y-71361904D01*
X125561904Y-71361904D01*
X125485714Y-71400000D01*
X125447619Y-71438095D01*
X125409523Y-71514285D01*
X125409523Y-71628571D01*
X125447619Y-71704761D01*
X125485714Y-71742857D01*
X125561904Y-71780952D01*
X125866666Y-71780952D01*
X124647619Y-72161904D02*
X125104761Y-72161904D01*
X124876190Y-72161904D02*
X124876190Y-71361904D01*
X124952380Y-71476190D01*
X125028571Y-71552380D01*
X125104761Y-71590476D01*
X124380952Y-71361904D02*
X123885714Y-71361904D01*
X124152380Y-71666666D01*
X124038095Y-71666666D01*
X123961904Y-71704761D01*
X123923809Y-71742857D01*
X123885714Y-71819047D01*
X123885714Y-72009523D01*
X123923809Y-72085714D01*
X123961904Y-72123809D01*
X124038095Y-72161904D01*
X124266666Y-72161904D01*
X124342857Y-72123809D01*
X124380952Y-72085714D01*
M02*
