G04 #@! TF.GenerationSoftware,KiCad,Pcbnew,(5.1.5)-3*
G04 #@! TF.CreationDate,2020-09-30T18:54:31+10:00*
G04 #@! TF.ProjectId,Onion_Feather,4f6e696f-6e5f-4466-9561-746865722e6b,rev?*
G04 #@! TF.SameCoordinates,Original*
G04 #@! TF.FileFunction,Legend,Bot*
G04 #@! TF.FilePolarity,Positive*
%FSLAX46Y46*%
G04 Gerber Fmt 4.6, Leading zero omitted, Abs format (unit mm)*
G04 Created by KiCad (PCBNEW (5.1.5)-3) date 2020-09-30 18:54:31*
%MOMM*%
%LPD*%
G04 APERTURE LIST*
%ADD10C,0.150000*%
%ADD11C,0.120000*%
%ADD12C,0.200000*%
G04 APERTURE END LIST*
D10*
X162169523Y-92227380D02*
X161979047Y-92227380D01*
X161883809Y-92275000D01*
X161788571Y-92370238D01*
X161740952Y-92560714D01*
X161740952Y-92894047D01*
X161788571Y-93084523D01*
X161883809Y-93179761D01*
X161979047Y-93227380D01*
X162169523Y-93227380D01*
X162264761Y-93179761D01*
X162360000Y-93084523D01*
X162407619Y-92894047D01*
X162407619Y-92560714D01*
X162360000Y-92370238D01*
X162264761Y-92275000D01*
X162169523Y-92227380D01*
X161312380Y-92560714D02*
X161312380Y-93227380D01*
X161312380Y-92655952D02*
X161264761Y-92608333D01*
X161169523Y-92560714D01*
X161026666Y-92560714D01*
X160931428Y-92608333D01*
X160883809Y-92703571D01*
X160883809Y-93227380D01*
X160407619Y-93227380D02*
X160407619Y-92560714D01*
X160407619Y-92227380D02*
X160455238Y-92275000D01*
X160407619Y-92322619D01*
X160360000Y-92275000D01*
X160407619Y-92227380D01*
X160407619Y-92322619D01*
X159788571Y-93227380D02*
X159883809Y-93179761D01*
X159931428Y-93132142D01*
X159979047Y-93036904D01*
X159979047Y-92751190D01*
X159931428Y-92655952D01*
X159883809Y-92608333D01*
X159788571Y-92560714D01*
X159645714Y-92560714D01*
X159550476Y-92608333D01*
X159502857Y-92655952D01*
X159455238Y-92751190D01*
X159455238Y-93036904D01*
X159502857Y-93132142D01*
X159550476Y-93179761D01*
X159645714Y-93227380D01*
X159788571Y-93227380D01*
X159026666Y-92560714D02*
X159026666Y-93227380D01*
X159026666Y-92655952D02*
X158979047Y-92608333D01*
X158883809Y-92560714D01*
X158740952Y-92560714D01*
X158645714Y-92608333D01*
X158598095Y-92703571D01*
X158598095Y-93227380D01*
X158121904Y-92846428D02*
X157360000Y-92846428D01*
X156693333Y-92227380D02*
X156502857Y-92227380D01*
X156407619Y-92275000D01*
X156312380Y-92370238D01*
X156264761Y-92560714D01*
X156264761Y-92894047D01*
X156312380Y-93084523D01*
X156407619Y-93179761D01*
X156502857Y-93227380D01*
X156693333Y-93227380D01*
X156788571Y-93179761D01*
X156883809Y-93084523D01*
X156931428Y-92894047D01*
X156931428Y-92560714D01*
X156883809Y-92370238D01*
X156788571Y-92275000D01*
X156693333Y-92227380D01*
X155836190Y-93227380D02*
X155836190Y-92560714D01*
X155836190Y-92655952D02*
X155788571Y-92608333D01*
X155693333Y-92560714D01*
X155550476Y-92560714D01*
X155455238Y-92608333D01*
X155407619Y-92703571D01*
X155407619Y-93227380D01*
X155407619Y-92703571D02*
X155360000Y-92608333D01*
X155264761Y-92560714D01*
X155121904Y-92560714D01*
X155026666Y-92608333D01*
X154979047Y-92703571D01*
X154979047Y-93227380D01*
X154121904Y-93179761D02*
X154217142Y-93227380D01*
X154407619Y-93227380D01*
X154502857Y-93179761D01*
X154550476Y-93084523D01*
X154550476Y-92703571D01*
X154502857Y-92608333D01*
X154407619Y-92560714D01*
X154217142Y-92560714D01*
X154121904Y-92608333D01*
X154074285Y-92703571D01*
X154074285Y-92798809D01*
X154550476Y-92894047D01*
X153217142Y-92560714D02*
X153217142Y-93370238D01*
X153264761Y-93465476D01*
X153312380Y-93513095D01*
X153407619Y-93560714D01*
X153550476Y-93560714D01*
X153645714Y-93513095D01*
X153217142Y-93179761D02*
X153312380Y-93227380D01*
X153502857Y-93227380D01*
X153598095Y-93179761D01*
X153645714Y-93132142D01*
X153693333Y-93036904D01*
X153693333Y-92751190D01*
X153645714Y-92655952D01*
X153598095Y-92608333D01*
X153502857Y-92560714D01*
X153312380Y-92560714D01*
X153217142Y-92608333D01*
X152312380Y-93227380D02*
X152312380Y-92703571D01*
X152360000Y-92608333D01*
X152455238Y-92560714D01*
X152645714Y-92560714D01*
X152740952Y-92608333D01*
X152312380Y-93179761D02*
X152407619Y-93227380D01*
X152645714Y-93227380D01*
X152740952Y-93179761D01*
X152788571Y-93084523D01*
X152788571Y-92989285D01*
X152740952Y-92894047D01*
X152645714Y-92846428D01*
X152407619Y-92846428D01*
X152312380Y-92798809D01*
X151217142Y-92560714D02*
X150836190Y-92560714D01*
X151074285Y-92227380D02*
X151074285Y-93084523D01*
X151026666Y-93179761D01*
X150931428Y-93227380D01*
X150836190Y-93227380D01*
X150360000Y-93227380D02*
X150455238Y-93179761D01*
X150502857Y-93132142D01*
X150550476Y-93036904D01*
X150550476Y-92751190D01*
X150502857Y-92655952D01*
X150455238Y-92608333D01*
X150360000Y-92560714D01*
X150217142Y-92560714D01*
X150121904Y-92608333D01*
X150074285Y-92655952D01*
X150026666Y-92751190D01*
X150026666Y-93036904D01*
X150074285Y-93132142D01*
X150121904Y-93179761D01*
X150217142Y-93227380D01*
X150360000Y-93227380D01*
X148502857Y-92703571D02*
X148836190Y-92703571D01*
X148836190Y-93227380D02*
X148836190Y-92227380D01*
X148360000Y-92227380D01*
X147598095Y-93179761D02*
X147693333Y-93227380D01*
X147883809Y-93227380D01*
X147979047Y-93179761D01*
X148026666Y-93084523D01*
X148026666Y-92703571D01*
X147979047Y-92608333D01*
X147883809Y-92560714D01*
X147693333Y-92560714D01*
X147598095Y-92608333D01*
X147550476Y-92703571D01*
X147550476Y-92798809D01*
X148026666Y-92894047D01*
X146693333Y-93227380D02*
X146693333Y-92703571D01*
X146740952Y-92608333D01*
X146836190Y-92560714D01*
X147026666Y-92560714D01*
X147121904Y-92608333D01*
X146693333Y-93179761D02*
X146788571Y-93227380D01*
X147026666Y-93227380D01*
X147121904Y-93179761D01*
X147169523Y-93084523D01*
X147169523Y-92989285D01*
X147121904Y-92894047D01*
X147026666Y-92846428D01*
X146788571Y-92846428D01*
X146693333Y-92798809D01*
X146360000Y-92560714D02*
X145979047Y-92560714D01*
X146217142Y-92227380D02*
X146217142Y-93084523D01*
X146169523Y-93179761D01*
X146074285Y-93227380D01*
X145979047Y-93227380D01*
X145645714Y-93227380D02*
X145645714Y-92227380D01*
X145217142Y-93227380D02*
X145217142Y-92703571D01*
X145264761Y-92608333D01*
X145360000Y-92560714D01*
X145502857Y-92560714D01*
X145598095Y-92608333D01*
X145645714Y-92655952D01*
X144360000Y-93179761D02*
X144455238Y-93227380D01*
X144645714Y-93227380D01*
X144740952Y-93179761D01*
X144788571Y-93084523D01*
X144788571Y-92703571D01*
X144740952Y-92608333D01*
X144645714Y-92560714D01*
X144455238Y-92560714D01*
X144360000Y-92608333D01*
X144312380Y-92703571D01*
X144312380Y-92798809D01*
X144788571Y-92894047D01*
X143883809Y-93227380D02*
X143883809Y-92560714D01*
X143883809Y-92751190D02*
X143836190Y-92655952D01*
X143788571Y-92608333D01*
X143693333Y-92560714D01*
X143598095Y-92560714D01*
X142550476Y-92941666D02*
X142074285Y-92941666D01*
X142645714Y-93227380D02*
X142312380Y-92227380D01*
X141979047Y-93227380D01*
X141217142Y-93227380D02*
X141217142Y-92227380D01*
X141217142Y-93179761D02*
X141312380Y-93227380D01*
X141502857Y-93227380D01*
X141598095Y-93179761D01*
X141645714Y-93132142D01*
X141693333Y-93036904D01*
X141693333Y-92751190D01*
X141645714Y-92655952D01*
X141598095Y-92608333D01*
X141502857Y-92560714D01*
X141312380Y-92560714D01*
X141217142Y-92608333D01*
X140312380Y-93227380D02*
X140312380Y-92703571D01*
X140360000Y-92608333D01*
X140455238Y-92560714D01*
X140645714Y-92560714D01*
X140740952Y-92608333D01*
X140312380Y-93179761D02*
X140407619Y-93227380D01*
X140645714Y-93227380D01*
X140740952Y-93179761D01*
X140788571Y-93084523D01*
X140788571Y-92989285D01*
X140740952Y-92894047D01*
X140645714Y-92846428D01*
X140407619Y-92846428D01*
X140312380Y-92798809D01*
X139836190Y-92560714D02*
X139836190Y-93560714D01*
X139836190Y-92608333D02*
X139740952Y-92560714D01*
X139550476Y-92560714D01*
X139455238Y-92608333D01*
X139407619Y-92655952D01*
X139360000Y-92751190D01*
X139360000Y-93036904D01*
X139407619Y-93132142D01*
X139455238Y-93179761D01*
X139550476Y-93227380D01*
X139740952Y-93227380D01*
X139836190Y-93179761D01*
X139074285Y-92560714D02*
X138693333Y-92560714D01*
X138931428Y-92227380D02*
X138931428Y-93084523D01*
X138883809Y-93179761D01*
X138788571Y-93227380D01*
X138693333Y-93227380D01*
X137979047Y-93179761D02*
X138074285Y-93227380D01*
X138264761Y-93227380D01*
X138360000Y-93179761D01*
X138407619Y-93084523D01*
X138407619Y-92703571D01*
X138360000Y-92608333D01*
X138264761Y-92560714D01*
X138074285Y-92560714D01*
X137979047Y-92608333D01*
X137931428Y-92703571D01*
X137931428Y-92798809D01*
X138407619Y-92894047D01*
X137502857Y-93227380D02*
X137502857Y-92560714D01*
X137502857Y-92751190D02*
X137455238Y-92655952D01*
X137407619Y-92608333D01*
X137312380Y-92560714D01*
X137217142Y-92560714D01*
X157240952Y-94210714D02*
X157002857Y-94877380D01*
X156764761Y-94210714D01*
X156193333Y-93877380D02*
X156098095Y-93877380D01*
X156002857Y-93925000D01*
X155955238Y-93972619D01*
X155907619Y-94067857D01*
X155860000Y-94258333D01*
X155860000Y-94496428D01*
X155907619Y-94686904D01*
X155955238Y-94782142D01*
X156002857Y-94829761D01*
X156098095Y-94877380D01*
X156193333Y-94877380D01*
X156288571Y-94829761D01*
X156336190Y-94782142D01*
X156383809Y-94686904D01*
X156431428Y-94496428D01*
X156431428Y-94258333D01*
X156383809Y-94067857D01*
X156336190Y-93972619D01*
X156288571Y-93925000D01*
X156193333Y-93877380D01*
X155431428Y-94782142D02*
X155383809Y-94829761D01*
X155431428Y-94877380D01*
X155479047Y-94829761D01*
X155431428Y-94782142D01*
X155431428Y-94877380D01*
X154764761Y-93877380D02*
X154669523Y-93877380D01*
X154574285Y-93925000D01*
X154526666Y-93972619D01*
X154479047Y-94067857D01*
X154431428Y-94258333D01*
X154431428Y-94496428D01*
X154479047Y-94686904D01*
X154526666Y-94782142D01*
X154574285Y-94829761D01*
X154669523Y-94877380D01*
X154764761Y-94877380D01*
X154860000Y-94829761D01*
X154907619Y-94782142D01*
X154955238Y-94686904D01*
X155002857Y-94496428D01*
X155002857Y-94258333D01*
X154955238Y-94067857D01*
X154907619Y-93972619D01*
X154860000Y-93925000D01*
X154764761Y-93877380D01*
X154002857Y-94782142D02*
X153955238Y-94829761D01*
X154002857Y-94877380D01*
X154050476Y-94829761D01*
X154002857Y-94782142D01*
X154002857Y-94877380D01*
X153574285Y-93972619D02*
X153526666Y-93925000D01*
X153431428Y-93877380D01*
X153193333Y-93877380D01*
X153098095Y-93925000D01*
X153050476Y-93972619D01*
X153002857Y-94067857D01*
X153002857Y-94163095D01*
X153050476Y-94305952D01*
X153621904Y-94877380D01*
X153002857Y-94877380D01*
X151907619Y-93877380D02*
X151288571Y-93877380D01*
X151621904Y-94258333D01*
X151479047Y-94258333D01*
X151383809Y-94305952D01*
X151336190Y-94353571D01*
X151288571Y-94448809D01*
X151288571Y-94686904D01*
X151336190Y-94782142D01*
X151383809Y-94829761D01*
X151479047Y-94877380D01*
X151764761Y-94877380D01*
X151860000Y-94829761D01*
X151907619Y-94782142D01*
X150669523Y-93877380D02*
X150574285Y-93877380D01*
X150479047Y-93925000D01*
X150431428Y-93972619D01*
X150383809Y-94067857D01*
X150336190Y-94258333D01*
X150336190Y-94496428D01*
X150383809Y-94686904D01*
X150431428Y-94782142D01*
X150479047Y-94829761D01*
X150574285Y-94877380D01*
X150669523Y-94877380D01*
X150764761Y-94829761D01*
X150812380Y-94782142D01*
X150860000Y-94686904D01*
X150907619Y-94496428D01*
X150907619Y-94258333D01*
X150860000Y-94067857D01*
X150812380Y-93972619D01*
X150764761Y-93925000D01*
X150669523Y-93877380D01*
X149193333Y-93829761D02*
X150050476Y-95115476D01*
X148669523Y-93877380D02*
X148574285Y-93877380D01*
X148479047Y-93925000D01*
X148431428Y-93972619D01*
X148383809Y-94067857D01*
X148336190Y-94258333D01*
X148336190Y-94496428D01*
X148383809Y-94686904D01*
X148431428Y-94782142D01*
X148479047Y-94829761D01*
X148574285Y-94877380D01*
X148669523Y-94877380D01*
X148764761Y-94829761D01*
X148812380Y-94782142D01*
X148860000Y-94686904D01*
X148907619Y-94496428D01*
X148907619Y-94258333D01*
X148860000Y-94067857D01*
X148812380Y-93972619D01*
X148764761Y-93925000D01*
X148669523Y-93877380D01*
X147860000Y-94877380D02*
X147669523Y-94877380D01*
X147574285Y-94829761D01*
X147526666Y-94782142D01*
X147431428Y-94639285D01*
X147383809Y-94448809D01*
X147383809Y-94067857D01*
X147431428Y-93972619D01*
X147479047Y-93925000D01*
X147574285Y-93877380D01*
X147764761Y-93877380D01*
X147860000Y-93925000D01*
X147907619Y-93972619D01*
X147955238Y-94067857D01*
X147955238Y-94305952D01*
X147907619Y-94401190D01*
X147860000Y-94448809D01*
X147764761Y-94496428D01*
X147574285Y-94496428D01*
X147479047Y-94448809D01*
X147431428Y-94401190D01*
X147383809Y-94305952D01*
X146240952Y-93829761D02*
X147098095Y-95115476D01*
X145955238Y-93972619D02*
X145907619Y-93925000D01*
X145812380Y-93877380D01*
X145574285Y-93877380D01*
X145479047Y-93925000D01*
X145431428Y-93972619D01*
X145383809Y-94067857D01*
X145383809Y-94163095D01*
X145431428Y-94305952D01*
X146002857Y-94877380D01*
X145383809Y-94877380D01*
X144764761Y-93877380D02*
X144669523Y-93877380D01*
X144574285Y-93925000D01*
X144526666Y-93972619D01*
X144479047Y-94067857D01*
X144431428Y-94258333D01*
X144431428Y-94496428D01*
X144479047Y-94686904D01*
X144526666Y-94782142D01*
X144574285Y-94829761D01*
X144669523Y-94877380D01*
X144764761Y-94877380D01*
X144860000Y-94829761D01*
X144907619Y-94782142D01*
X144955238Y-94686904D01*
X145002857Y-94496428D01*
X145002857Y-94258333D01*
X144955238Y-94067857D01*
X144907619Y-93972619D01*
X144860000Y-93925000D01*
X144764761Y-93877380D01*
X144050476Y-93972619D02*
X144002857Y-93925000D01*
X143907619Y-93877380D01*
X143669523Y-93877380D01*
X143574285Y-93925000D01*
X143526666Y-93972619D01*
X143479047Y-94067857D01*
X143479047Y-94163095D01*
X143526666Y-94305952D01*
X144098095Y-94877380D01*
X143479047Y-94877380D01*
X142860000Y-93877380D02*
X142764761Y-93877380D01*
X142669523Y-93925000D01*
X142621904Y-93972619D01*
X142574285Y-94067857D01*
X142526666Y-94258333D01*
X142526666Y-94496428D01*
X142574285Y-94686904D01*
X142621904Y-94782142D01*
X142669523Y-94829761D01*
X142764761Y-94877380D01*
X142860000Y-94877380D01*
X142955238Y-94829761D01*
X143002857Y-94782142D01*
X143050476Y-94686904D01*
X143098095Y-94496428D01*
X143098095Y-94258333D01*
X143050476Y-94067857D01*
X143002857Y-93972619D01*
X142955238Y-93925000D01*
X142860000Y-93877380D01*
X159812380Y-96527380D02*
X159812380Y-95527380D01*
X159812380Y-95908333D02*
X159717142Y-95860714D01*
X159526666Y-95860714D01*
X159431428Y-95908333D01*
X159383809Y-95955952D01*
X159336190Y-96051190D01*
X159336190Y-96336904D01*
X159383809Y-96432142D01*
X159431428Y-96479761D01*
X159526666Y-96527380D01*
X159717142Y-96527380D01*
X159812380Y-96479761D01*
X159002857Y-95860714D02*
X158764761Y-96527380D01*
X158526666Y-95860714D02*
X158764761Y-96527380D01*
X158860000Y-96765476D01*
X158907619Y-96813095D01*
X159002857Y-96860714D01*
X157526666Y-95527380D02*
X156955238Y-95527380D01*
X157240952Y-96527380D02*
X157240952Y-95527380D01*
X156621904Y-96527380D02*
X156621904Y-95860714D01*
X156621904Y-95527380D02*
X156669523Y-95575000D01*
X156621904Y-95622619D01*
X156574285Y-95575000D01*
X156621904Y-95527380D01*
X156621904Y-95622619D01*
X156193333Y-96479761D02*
X156098095Y-96527380D01*
X155907619Y-96527380D01*
X155812380Y-96479761D01*
X155764761Y-96384523D01*
X155764761Y-96336904D01*
X155812380Y-96241666D01*
X155907619Y-96194047D01*
X156050476Y-96194047D01*
X156145714Y-96146428D01*
X156193333Y-96051190D01*
X156193333Y-96003571D01*
X156145714Y-95908333D01*
X156050476Y-95860714D01*
X155907619Y-95860714D01*
X155812380Y-95908333D01*
X155336190Y-96527380D02*
X155336190Y-95527380D01*
X154907619Y-96527380D02*
X154907619Y-96003571D01*
X154955238Y-95908333D01*
X155050476Y-95860714D01*
X155193333Y-95860714D01*
X155288571Y-95908333D01*
X155336190Y-95955952D01*
X154002857Y-96527380D02*
X154002857Y-96003571D01*
X154050476Y-95908333D01*
X154145714Y-95860714D01*
X154336190Y-95860714D01*
X154431428Y-95908333D01*
X154002857Y-96479761D02*
X154098095Y-96527380D01*
X154336190Y-96527380D01*
X154431428Y-96479761D01*
X154479047Y-96384523D01*
X154479047Y-96289285D01*
X154431428Y-96194047D01*
X154336190Y-96146428D01*
X154098095Y-96146428D01*
X154002857Y-96098809D01*
X153526666Y-96527380D02*
X153526666Y-95860714D01*
X153526666Y-95955952D02*
X153479047Y-95908333D01*
X153383809Y-95860714D01*
X153240952Y-95860714D01*
X153145714Y-95908333D01*
X153098095Y-96003571D01*
X153098095Y-96527380D01*
X153098095Y-96003571D02*
X153050476Y-95908333D01*
X152955238Y-95860714D01*
X152812380Y-95860714D01*
X152717142Y-95908333D01*
X152669523Y-96003571D01*
X152669523Y-96527380D01*
X151145714Y-96908333D02*
X151193333Y-96860714D01*
X151288571Y-96717857D01*
X151336190Y-96622619D01*
X151383809Y-96479761D01*
X151431428Y-96241666D01*
X151431428Y-96051190D01*
X151383809Y-95813095D01*
X151336190Y-95670238D01*
X151288571Y-95575000D01*
X151193333Y-95432142D01*
X151145714Y-95384523D01*
X150860000Y-95860714D02*
X150669523Y-96527380D01*
X150479047Y-96051190D01*
X150288571Y-96527380D01*
X150098095Y-95860714D01*
X149717142Y-96527380D02*
X149717142Y-95527380D01*
X149288571Y-96527380D02*
X149288571Y-96003571D01*
X149336190Y-95908333D01*
X149431428Y-95860714D01*
X149574285Y-95860714D01*
X149669523Y-95908333D01*
X149717142Y-95955952D01*
X148383809Y-96527380D02*
X148383809Y-96003571D01*
X148431428Y-95908333D01*
X148526666Y-95860714D01*
X148717142Y-95860714D01*
X148812380Y-95908333D01*
X148383809Y-96479761D02*
X148479047Y-96527380D01*
X148717142Y-96527380D01*
X148812380Y-96479761D01*
X148860000Y-96384523D01*
X148860000Y-96289285D01*
X148812380Y-96194047D01*
X148717142Y-96146428D01*
X148479047Y-96146428D01*
X148383809Y-96098809D01*
X148050476Y-95860714D02*
X147669523Y-95860714D01*
X147907619Y-95527380D02*
X147907619Y-96384523D01*
X147860000Y-96479761D01*
X147764761Y-96527380D01*
X147669523Y-96527380D01*
X147336190Y-95860714D02*
X147336190Y-96527380D01*
X147336190Y-95955952D02*
X147288571Y-95908333D01*
X147193333Y-95860714D01*
X147050476Y-95860714D01*
X146955238Y-95908333D01*
X146907619Y-96003571D01*
X146907619Y-96527380D01*
X146431428Y-96527380D02*
X146431428Y-95860714D01*
X146431428Y-95527380D02*
X146479047Y-95575000D01*
X146431428Y-95622619D01*
X146383809Y-95575000D01*
X146431428Y-95527380D01*
X146431428Y-95622619D01*
X145526666Y-96479761D02*
X145621904Y-96527380D01*
X145812380Y-96527380D01*
X145907619Y-96479761D01*
X145955238Y-96432142D01*
X146002857Y-96336904D01*
X146002857Y-96051190D01*
X145955238Y-95955952D01*
X145907619Y-95908333D01*
X145812380Y-95860714D01*
X145621904Y-95860714D01*
X145526666Y-95908333D01*
X145098095Y-96527380D02*
X145098095Y-95527380D01*
X145002857Y-96146428D02*
X144717142Y-96527380D01*
X144717142Y-95860714D02*
X145098095Y-96241666D01*
X144383809Y-96908333D02*
X144336190Y-96860714D01*
X144240952Y-96717857D01*
X144193333Y-96622619D01*
X144145714Y-96479761D01*
X144098095Y-96241666D01*
X144098095Y-96051190D01*
X144145714Y-95813095D01*
X144193333Y-95670238D01*
X144240952Y-95575000D01*
X144336190Y-95432142D01*
X144383809Y-95384523D01*
X142860000Y-96527380D02*
X142860000Y-95527380D01*
X142621904Y-95527380D01*
X142479047Y-95575000D01*
X142383809Y-95670238D01*
X142336190Y-95765476D01*
X142288571Y-95955952D01*
X142288571Y-96098809D01*
X142336190Y-96289285D01*
X142383809Y-96384523D01*
X142479047Y-96479761D01*
X142621904Y-96527380D01*
X142860000Y-96527380D01*
X141860000Y-96527380D02*
X141860000Y-95527380D01*
X141431428Y-96527380D02*
X141431428Y-96003571D01*
X141479047Y-95908333D01*
X141574285Y-95860714D01*
X141717142Y-95860714D01*
X141812380Y-95908333D01*
X141860000Y-95955952D01*
X140526666Y-96527380D02*
X140526666Y-96003571D01*
X140574285Y-95908333D01*
X140669523Y-95860714D01*
X140860000Y-95860714D01*
X140955238Y-95908333D01*
X140526666Y-96479761D02*
X140621904Y-96527380D01*
X140860000Y-96527380D01*
X140955238Y-96479761D01*
X141002857Y-96384523D01*
X141002857Y-96289285D01*
X140955238Y-96194047D01*
X140860000Y-96146428D01*
X140621904Y-96146428D01*
X140526666Y-96098809D01*
X140050476Y-96527380D02*
X140050476Y-95860714D01*
X140050476Y-96051190D02*
X140002857Y-95955952D01*
X139955238Y-95908333D01*
X139860000Y-95860714D01*
X139764761Y-95860714D01*
X153717142Y-97177380D02*
X153526666Y-97177380D01*
X153431428Y-97225000D01*
X153336190Y-97320238D01*
X153288571Y-97510714D01*
X153288571Y-97844047D01*
X153336190Y-98034523D01*
X153431428Y-98129761D01*
X153526666Y-98177380D01*
X153717142Y-98177380D01*
X153812380Y-98129761D01*
X153907619Y-98034523D01*
X153955238Y-97844047D01*
X153955238Y-97510714D01*
X153907619Y-97320238D01*
X153812380Y-97225000D01*
X153717142Y-97177380D01*
X152907619Y-98129761D02*
X152764761Y-98177380D01*
X152526666Y-98177380D01*
X152431428Y-98129761D01*
X152383809Y-98082142D01*
X152336190Y-97986904D01*
X152336190Y-97891666D01*
X152383809Y-97796428D01*
X152431428Y-97748809D01*
X152526666Y-97701190D01*
X152717142Y-97653571D01*
X152812380Y-97605952D01*
X152860000Y-97558333D01*
X152907619Y-97463095D01*
X152907619Y-97367857D01*
X152860000Y-97272619D01*
X152812380Y-97225000D01*
X152717142Y-97177380D01*
X152479047Y-97177380D01*
X152336190Y-97225000D01*
X151907619Y-98177380D02*
X151907619Y-97177380D01*
X151907619Y-97653571D02*
X151336190Y-97653571D01*
X151336190Y-98177380D02*
X151336190Y-97177380D01*
X150955238Y-97177380D02*
X150717142Y-98177380D01*
X150526666Y-97463095D01*
X150336190Y-98177380D01*
X150098095Y-97177380D01*
X149098095Y-97177380D02*
X148526666Y-97177380D01*
X148812380Y-98177380D02*
X148812380Y-97177380D01*
X148240952Y-97891666D02*
X147764761Y-97891666D01*
X148336190Y-98177380D02*
X148002857Y-97177380D01*
X147669523Y-98177380D01*
X147336190Y-98177380D02*
X147336190Y-97177380D01*
X146955238Y-97177380D01*
X146859999Y-97225000D01*
X146812380Y-97272619D01*
X146764761Y-97367857D01*
X146764761Y-97510714D01*
X146812380Y-97605952D01*
X146859999Y-97653571D01*
X146955238Y-97701190D01*
X147336190Y-97701190D01*
X145764761Y-98177380D02*
X146098095Y-97701190D01*
X146336190Y-98177380D02*
X146336190Y-97177380D01*
X145955238Y-97177380D01*
X145859999Y-97225000D01*
X145812380Y-97272619D01*
X145764761Y-97367857D01*
X145764761Y-97510714D01*
X145812380Y-97605952D01*
X145859999Y-97653571D01*
X145955238Y-97701190D01*
X146336190Y-97701190D01*
D11*
X139583200Y-103174800D02*
G75*
G03X139583200Y-103174800I-950000J0D01*
G01*
X139583200Y-100482400D02*
G75*
G03X139583200Y-100482400I-950000J0D01*
G01*
X122412800Y-108508800D02*
G75*
G03X122412800Y-108508800I-950000J0D01*
G01*
X139634000Y-105816400D02*
G75*
G03X139634000Y-105816400I-950000J0D01*
G01*
X164081500Y-79121000D02*
G75*
G03X164081500Y-79121000I-950000J0D01*
G01*
X164018000Y-73660000D02*
G75*
G03X164018000Y-73660000I-950000J0D01*
G01*
X132330000Y-70350000D02*
G75*
G03X132330000Y-70350000I-950000J0D01*
G01*
X126020000Y-66090000D02*
G75*
G03X126020000Y-66090000I-950000J0D01*
G01*
X155375000Y-105200000D02*
G75*
G03X155375000Y-105200000I-950000J0D01*
G01*
X158050000Y-105200000D02*
G75*
G03X158050000Y-105200000I-950000J0D01*
G01*
X156125000Y-108025000D02*
X156125000Y-109425000D01*
X156825000Y-110125000D02*
X157425000Y-110125000D01*
X158125000Y-109425000D02*
X158125000Y-108025000D01*
X157425000Y-107325000D02*
X156825000Y-107325000D01*
X156825000Y-107325000D02*
G75*
G03X156125000Y-108025000I0J-700000D01*
G01*
X158125000Y-108025000D02*
G75*
G03X157425000Y-107325000I-700000J0D01*
G01*
X157425000Y-110125000D02*
G75*
G03X158125000Y-109425000I0J700000D01*
G01*
X156125000Y-109425000D02*
G75*
G03X156825000Y-110125000I700000J0D01*
G01*
X153550000Y-108025000D02*
X153550000Y-109425000D01*
X154250000Y-110125000D02*
X154850000Y-110125000D01*
X155550000Y-109425000D02*
X155550000Y-108025000D01*
X154850000Y-107325000D02*
X154250000Y-107325000D01*
X154250000Y-107325000D02*
G75*
G03X153550000Y-108025000I0J-700000D01*
G01*
X155550000Y-108025000D02*
G75*
G03X154850000Y-107325000I-700000J0D01*
G01*
X154850000Y-110125000D02*
G75*
G03X155550000Y-109425000I0J700000D01*
G01*
X153550000Y-109425000D02*
G75*
G03X154250000Y-110125000I700000J0D01*
G01*
X138610000Y-79840000D02*
G75*
G03X138610000Y-79840000I-950000J0D01*
G01*
X141320000Y-79810000D02*
G75*
G03X141320000Y-79810000I-950000J0D01*
G01*
X149220000Y-79830000D02*
G75*
G03X149220000Y-79830000I-950000J0D01*
G01*
X143920000Y-79840000D02*
G75*
G03X143920000Y-79840000I-950000J0D01*
G01*
X135450000Y-76900000D02*
G75*
G03X135450000Y-76900000I-950000J0D01*
G01*
X135780000Y-79770000D02*
G75*
G03X135780000Y-79770000I-950000J0D01*
G01*
X138350000Y-69000000D02*
G75*
G03X138350000Y-69000000I-950000J0D01*
G01*
X146510000Y-79850000D02*
G75*
G03X146510000Y-79850000I-950000J0D01*
G01*
X124750000Y-70000000D02*
G75*
G03X124750000Y-70000000I-950000J0D01*
G01*
D10*
X143825695Y-102576380D02*
X143254266Y-102576380D01*
X143539980Y-103576380D02*
X143539980Y-102576380D01*
X142920933Y-103576380D02*
X142920933Y-102576380D01*
X142539980Y-102576380D01*
X142444742Y-102624000D01*
X142397123Y-102671619D01*
X142349504Y-102766857D01*
X142349504Y-102909714D01*
X142397123Y-103004952D01*
X142444742Y-103052571D01*
X142539980Y-103100190D01*
X142920933Y-103100190D01*
X141397123Y-103576380D02*
X141968552Y-103576380D01*
X141682838Y-103576380D02*
X141682838Y-102576380D01*
X141778076Y-102719238D01*
X141873314Y-102814476D01*
X141968552Y-102862095D01*
X140920933Y-103576380D02*
X140730457Y-103576380D01*
X140635219Y-103528761D01*
X140587600Y-103481142D01*
X140492361Y-103338285D01*
X140444742Y-103147809D01*
X140444742Y-102766857D01*
X140492361Y-102671619D01*
X140539980Y-102624000D01*
X140635219Y-102576380D01*
X140825695Y-102576380D01*
X140920933Y-102624000D01*
X140968552Y-102671619D01*
X141016171Y-102766857D01*
X141016171Y-103004952D01*
X140968552Y-103100190D01*
X140920933Y-103147809D01*
X140825695Y-103195428D01*
X140635219Y-103195428D01*
X140539980Y-103147809D01*
X140492361Y-103100190D01*
X140444742Y-103004952D01*
X143774895Y-99934780D02*
X143203466Y-99934780D01*
X143489180Y-100934780D02*
X143489180Y-99934780D01*
X142870133Y-100934780D02*
X142870133Y-99934780D01*
X142489180Y-99934780D01*
X142393942Y-99982400D01*
X142346323Y-100030019D01*
X142298704Y-100125257D01*
X142298704Y-100268114D01*
X142346323Y-100363352D01*
X142393942Y-100410971D01*
X142489180Y-100458590D01*
X142870133Y-100458590D01*
X141346323Y-100934780D02*
X141917752Y-100934780D01*
X141632038Y-100934780D02*
X141632038Y-99934780D01*
X141727276Y-100077638D01*
X141822514Y-100172876D01*
X141917752Y-100220495D01*
X140774895Y-100363352D02*
X140870133Y-100315733D01*
X140917752Y-100268114D01*
X140965371Y-100172876D01*
X140965371Y-100125257D01*
X140917752Y-100030019D01*
X140870133Y-99982400D01*
X140774895Y-99934780D01*
X140584419Y-99934780D01*
X140489180Y-99982400D01*
X140441561Y-100030019D01*
X140393942Y-100125257D01*
X140393942Y-100172876D01*
X140441561Y-100268114D01*
X140489180Y-100315733D01*
X140584419Y-100363352D01*
X140774895Y-100363352D01*
X140870133Y-100410971D01*
X140917752Y-100458590D01*
X140965371Y-100553828D01*
X140965371Y-100744304D01*
X140917752Y-100839542D01*
X140870133Y-100887161D01*
X140774895Y-100934780D01*
X140584419Y-100934780D01*
X140489180Y-100887161D01*
X140441561Y-100839542D01*
X140393942Y-100744304D01*
X140393942Y-100553828D01*
X140441561Y-100458590D01*
X140489180Y-100410971D01*
X140584419Y-100363352D01*
X123200895Y-109609180D02*
X122629466Y-109609180D01*
X122915180Y-110609180D02*
X122915180Y-109609180D01*
X122296133Y-110609180D02*
X122296133Y-109609180D01*
X121915180Y-109609180D01*
X121819942Y-109656800D01*
X121772323Y-109704419D01*
X121724704Y-109799657D01*
X121724704Y-109942514D01*
X121772323Y-110037752D01*
X121819942Y-110085371D01*
X121915180Y-110132990D01*
X122296133Y-110132990D01*
X120772323Y-110609180D02*
X121343752Y-110609180D01*
X121058038Y-110609180D02*
X121058038Y-109609180D01*
X121153276Y-109752038D01*
X121248514Y-109847276D01*
X121343752Y-109894895D01*
X120438990Y-109609180D02*
X119772323Y-109609180D01*
X120200895Y-110609180D01*
X143876495Y-105421180D02*
X143305066Y-105421180D01*
X143590780Y-106421180D02*
X143590780Y-105421180D01*
X142971733Y-106421180D02*
X142971733Y-105421180D01*
X142590780Y-105421180D01*
X142495542Y-105468800D01*
X142447923Y-105516419D01*
X142400304Y-105611657D01*
X142400304Y-105754514D01*
X142447923Y-105849752D01*
X142495542Y-105897371D01*
X142590780Y-105944990D01*
X142971733Y-105944990D01*
X141447923Y-106421180D02*
X142019352Y-106421180D01*
X141733638Y-106421180D02*
X141733638Y-105421180D01*
X141828876Y-105564038D01*
X141924114Y-105659276D01*
X142019352Y-105706895D01*
X140590780Y-105421180D02*
X140781257Y-105421180D01*
X140876495Y-105468800D01*
X140924114Y-105516419D01*
X141019352Y-105659276D01*
X141066971Y-105849752D01*
X141066971Y-106230704D01*
X141019352Y-106325942D01*
X140971733Y-106373561D01*
X140876495Y-106421180D01*
X140686019Y-106421180D01*
X140590780Y-106373561D01*
X140543161Y-106325942D01*
X140495542Y-106230704D01*
X140495542Y-105992609D01*
X140543161Y-105897371D01*
X140590780Y-105849752D01*
X140686019Y-105802133D01*
X140876495Y-105802133D01*
X140971733Y-105849752D01*
X141019352Y-105897371D01*
X141066971Y-105992609D01*
D12*
X164521976Y-77031904D02*
X164064833Y-77031904D01*
X164293404Y-77831904D02*
X164293404Y-77031904D01*
X163798166Y-77831904D02*
X163798166Y-77031904D01*
X163493404Y-77031904D01*
X163417214Y-77070000D01*
X163379119Y-77108095D01*
X163341023Y-77184285D01*
X163341023Y-77298571D01*
X163379119Y-77374761D01*
X163417214Y-77412857D01*
X163493404Y-77450952D01*
X163798166Y-77450952D01*
X162579119Y-77831904D02*
X163036261Y-77831904D01*
X162807690Y-77831904D02*
X162807690Y-77031904D01*
X162883880Y-77146190D01*
X162960071Y-77222380D01*
X163036261Y-77260476D01*
X161855309Y-77031904D02*
X162236261Y-77031904D01*
X162274357Y-77412857D01*
X162236261Y-77374761D01*
X162160071Y-77336666D01*
X161969595Y-77336666D01*
X161893404Y-77374761D01*
X161855309Y-77412857D01*
X161817214Y-77489047D01*
X161817214Y-77679523D01*
X161855309Y-77755714D01*
X161893404Y-77793809D01*
X161969595Y-77831904D01*
X162160071Y-77831904D01*
X162236261Y-77793809D01*
X162274357Y-77755714D01*
X164458476Y-74869904D02*
X164001333Y-74869904D01*
X164229904Y-75669904D02*
X164229904Y-74869904D01*
X163734666Y-75669904D02*
X163734666Y-74869904D01*
X163429904Y-74869904D01*
X163353714Y-74908000D01*
X163315619Y-74946095D01*
X163277523Y-75022285D01*
X163277523Y-75136571D01*
X163315619Y-75212761D01*
X163353714Y-75250857D01*
X163429904Y-75288952D01*
X163734666Y-75288952D01*
X162515619Y-75669904D02*
X162972761Y-75669904D01*
X162744190Y-75669904D02*
X162744190Y-74869904D01*
X162820380Y-74984190D01*
X162896571Y-75060380D01*
X162972761Y-75098476D01*
X161829904Y-75136571D02*
X161829904Y-75669904D01*
X162020380Y-74831809D02*
X162210857Y-75403238D01*
X161715619Y-75403238D01*
X132389523Y-71559904D02*
X131932380Y-71559904D01*
X132160952Y-72359904D02*
X132160952Y-71559904D01*
X131665714Y-72359904D02*
X131665714Y-71559904D01*
X131360952Y-71559904D01*
X131284761Y-71598000D01*
X131246666Y-71636095D01*
X131208571Y-71712285D01*
X131208571Y-71826571D01*
X131246666Y-71902761D01*
X131284761Y-71940857D01*
X131360952Y-71978952D01*
X131665714Y-71978952D01*
X130522857Y-71826571D02*
X130522857Y-72359904D01*
X130713333Y-71521809D02*
X130903809Y-72093238D01*
X130408571Y-72093238D01*
X126079523Y-67299904D02*
X125622380Y-67299904D01*
X125850952Y-68099904D02*
X125850952Y-67299904D01*
X125355714Y-68099904D02*
X125355714Y-67299904D01*
X125050952Y-67299904D01*
X124974761Y-67338000D01*
X124936666Y-67376095D01*
X124898571Y-67452285D01*
X124898571Y-67566571D01*
X124936666Y-67642761D01*
X124974761Y-67680857D01*
X125050952Y-67718952D01*
X125355714Y-67718952D01*
X124631904Y-67299904D02*
X124136666Y-67299904D01*
X124403333Y-67604666D01*
X124289047Y-67604666D01*
X124212857Y-67642761D01*
X124174761Y-67680857D01*
X124136666Y-67757047D01*
X124136666Y-67947523D01*
X124174761Y-68023714D01*
X124212857Y-68061809D01*
X124289047Y-68099904D01*
X124517619Y-68099904D01*
X124593809Y-68061809D01*
X124631904Y-68023714D01*
X155109523Y-102836904D02*
X154652380Y-102836904D01*
X154880952Y-103636904D02*
X154880952Y-102836904D01*
X154385714Y-103636904D02*
X154385714Y-102836904D01*
X154080952Y-102836904D01*
X154004761Y-102875000D01*
X153966666Y-102913095D01*
X153928571Y-102989285D01*
X153928571Y-103103571D01*
X153966666Y-103179761D01*
X154004761Y-103217857D01*
X154080952Y-103255952D01*
X154385714Y-103255952D01*
X153623809Y-102913095D02*
X153585714Y-102875000D01*
X153509523Y-102836904D01*
X153319047Y-102836904D01*
X153242857Y-102875000D01*
X153204761Y-102913095D01*
X153166666Y-102989285D01*
X153166666Y-103065476D01*
X153204761Y-103179761D01*
X153661904Y-103636904D01*
X153166666Y-103636904D01*
X158109523Y-102886904D02*
X157652380Y-102886904D01*
X157880952Y-103686904D02*
X157880952Y-102886904D01*
X157385714Y-103686904D02*
X157385714Y-102886904D01*
X157080952Y-102886904D01*
X157004761Y-102925000D01*
X156966666Y-102963095D01*
X156928571Y-103039285D01*
X156928571Y-103153571D01*
X156966666Y-103229761D01*
X157004761Y-103267857D01*
X157080952Y-103305952D01*
X157385714Y-103305952D01*
X156166666Y-103686904D02*
X156623809Y-103686904D01*
X156395238Y-103686904D02*
X156395238Y-102886904D01*
X156471428Y-103001190D01*
X156547619Y-103077380D01*
X156623809Y-103115476D01*
X160466666Y-108261904D02*
X160466666Y-108833333D01*
X160504761Y-108947619D01*
X160580952Y-109023809D01*
X160695238Y-109061904D01*
X160771428Y-109061904D01*
X160085714Y-109061904D02*
X160085714Y-108261904D01*
X159780952Y-108261904D01*
X159704761Y-108300000D01*
X159666666Y-108338095D01*
X159628571Y-108414285D01*
X159628571Y-108528571D01*
X159666666Y-108604761D01*
X159704761Y-108642857D01*
X159780952Y-108680952D01*
X160085714Y-108680952D01*
X159323809Y-108338095D02*
X159285714Y-108300000D01*
X159209523Y-108261904D01*
X159019047Y-108261904D01*
X158942857Y-108300000D01*
X158904761Y-108338095D01*
X158866666Y-108414285D01*
X158866666Y-108490476D01*
X158904761Y-108604761D01*
X159361904Y-109061904D01*
X158866666Y-109061904D01*
X152666666Y-108261904D02*
X152666666Y-108833333D01*
X152704761Y-108947619D01*
X152780952Y-109023809D01*
X152895238Y-109061904D01*
X152971428Y-109061904D01*
X152285714Y-109061904D02*
X152285714Y-108261904D01*
X151980952Y-108261904D01*
X151904761Y-108300000D01*
X151866666Y-108338095D01*
X151828571Y-108414285D01*
X151828571Y-108528571D01*
X151866666Y-108604761D01*
X151904761Y-108642857D01*
X151980952Y-108680952D01*
X152285714Y-108680952D01*
X151066666Y-109061904D02*
X151523809Y-109061904D01*
X151295238Y-109061904D02*
X151295238Y-108261904D01*
X151371428Y-108376190D01*
X151447619Y-108452380D01*
X151523809Y-108490476D01*
X138609523Y-77661904D02*
X138152380Y-77661904D01*
X138380952Y-78461904D02*
X138380952Y-77661904D01*
X137885714Y-78461904D02*
X137885714Y-77661904D01*
X137580952Y-77661904D01*
X137504761Y-77700000D01*
X137466666Y-77738095D01*
X137428571Y-77814285D01*
X137428571Y-77928571D01*
X137466666Y-78004761D01*
X137504761Y-78042857D01*
X137580952Y-78080952D01*
X137885714Y-78080952D01*
X136704761Y-77661904D02*
X137085714Y-77661904D01*
X137123809Y-78042857D01*
X137085714Y-78004761D01*
X137009523Y-77966666D01*
X136819047Y-77966666D01*
X136742857Y-78004761D01*
X136704761Y-78042857D01*
X136666666Y-78119047D01*
X136666666Y-78309523D01*
X136704761Y-78385714D01*
X136742857Y-78423809D01*
X136819047Y-78461904D01*
X137009523Y-78461904D01*
X137085714Y-78423809D01*
X137123809Y-78385714D01*
X141509523Y-77661904D02*
X141052380Y-77661904D01*
X141280952Y-78461904D02*
X141280952Y-77661904D01*
X140785714Y-78461904D02*
X140785714Y-77661904D01*
X140480952Y-77661904D01*
X140404761Y-77700000D01*
X140366666Y-77738095D01*
X140328571Y-77814285D01*
X140328571Y-77928571D01*
X140366666Y-78004761D01*
X140404761Y-78042857D01*
X140480952Y-78080952D01*
X140785714Y-78080952D01*
X139642857Y-77661904D02*
X139795238Y-77661904D01*
X139871428Y-77700000D01*
X139909523Y-77738095D01*
X139985714Y-77852380D01*
X140023809Y-78004761D01*
X140023809Y-78309523D01*
X139985714Y-78385714D01*
X139947619Y-78423809D01*
X139871428Y-78461904D01*
X139719047Y-78461904D01*
X139642857Y-78423809D01*
X139604761Y-78385714D01*
X139566666Y-78309523D01*
X139566666Y-78119047D01*
X139604761Y-78042857D01*
X139642857Y-78004761D01*
X139719047Y-77966666D01*
X139871428Y-77966666D01*
X139947619Y-78004761D01*
X139985714Y-78042857D01*
X140023809Y-78119047D01*
X151209523Y-78261904D02*
X150752380Y-78261904D01*
X150980952Y-79061904D02*
X150980952Y-78261904D01*
X150485714Y-79061904D02*
X150485714Y-78261904D01*
X150180952Y-78261904D01*
X150104761Y-78300000D01*
X150066666Y-78338095D01*
X150028571Y-78414285D01*
X150028571Y-78528571D01*
X150066666Y-78604761D01*
X150104761Y-78642857D01*
X150180952Y-78680952D01*
X150485714Y-78680952D01*
X149761904Y-78261904D02*
X149228571Y-78261904D01*
X149571428Y-79061904D01*
X144309523Y-77561904D02*
X143852380Y-77561904D01*
X144080952Y-78361904D02*
X144080952Y-77561904D01*
X143585714Y-78361904D02*
X143585714Y-77561904D01*
X143280952Y-77561904D01*
X143204761Y-77600000D01*
X143166666Y-77638095D01*
X143128571Y-77714285D01*
X143128571Y-77828571D01*
X143166666Y-77904761D01*
X143204761Y-77942857D01*
X143280952Y-77980952D01*
X143585714Y-77980952D01*
X142671428Y-77904761D02*
X142747619Y-77866666D01*
X142785714Y-77828571D01*
X142823809Y-77752380D01*
X142823809Y-77714285D01*
X142785714Y-77638095D01*
X142747619Y-77600000D01*
X142671428Y-77561904D01*
X142519047Y-77561904D01*
X142442857Y-77600000D01*
X142404761Y-77638095D01*
X142366666Y-77714285D01*
X142366666Y-77752380D01*
X142404761Y-77828571D01*
X142442857Y-77866666D01*
X142519047Y-77904761D01*
X142671428Y-77904761D01*
X142747619Y-77942857D01*
X142785714Y-77980952D01*
X142823809Y-78057142D01*
X142823809Y-78209523D01*
X142785714Y-78285714D01*
X142747619Y-78323809D01*
X142671428Y-78361904D01*
X142519047Y-78361904D01*
X142442857Y-78323809D01*
X142404761Y-78285714D01*
X142366666Y-78209523D01*
X142366666Y-78057142D01*
X142404761Y-77980952D01*
X142442857Y-77942857D01*
X142519047Y-77904761D01*
X133009523Y-76361904D02*
X132552380Y-76361904D01*
X132780952Y-77161904D02*
X132780952Y-76361904D01*
X132285714Y-77161904D02*
X132285714Y-76361904D01*
X131980952Y-76361904D01*
X131904761Y-76400000D01*
X131866666Y-76438095D01*
X131828571Y-76514285D01*
X131828571Y-76628571D01*
X131866666Y-76704761D01*
X131904761Y-76742857D01*
X131980952Y-76780952D01*
X132285714Y-76780952D01*
X131447619Y-77161904D02*
X131295238Y-77161904D01*
X131219047Y-77123809D01*
X131180952Y-77085714D01*
X131104761Y-76971428D01*
X131066666Y-76819047D01*
X131066666Y-76514285D01*
X131104761Y-76438095D01*
X131142857Y-76400000D01*
X131219047Y-76361904D01*
X131371428Y-76361904D01*
X131447619Y-76400000D01*
X131485714Y-76438095D01*
X131523809Y-76514285D01*
X131523809Y-76704761D01*
X131485714Y-76780952D01*
X131447619Y-76819047D01*
X131371428Y-76857142D01*
X131219047Y-76857142D01*
X131142857Y-76819047D01*
X131104761Y-76780952D01*
X131066666Y-76704761D01*
X133290476Y-79361904D02*
X132833333Y-79361904D01*
X133061904Y-80161904D02*
X133061904Y-79361904D01*
X132566666Y-80161904D02*
X132566666Y-79361904D01*
X132261904Y-79361904D01*
X132185714Y-79400000D01*
X132147619Y-79438095D01*
X132109523Y-79514285D01*
X132109523Y-79628571D01*
X132147619Y-79704761D01*
X132185714Y-79742857D01*
X132261904Y-79780952D01*
X132566666Y-79780952D01*
X131347619Y-80161904D02*
X131804761Y-80161904D01*
X131576190Y-80161904D02*
X131576190Y-79361904D01*
X131652380Y-79476190D01*
X131728571Y-79552380D01*
X131804761Y-79590476D01*
X130852380Y-79361904D02*
X130776190Y-79361904D01*
X130700000Y-79400000D01*
X130661904Y-79438095D01*
X130623809Y-79514285D01*
X130585714Y-79666666D01*
X130585714Y-79857142D01*
X130623809Y-80009523D01*
X130661904Y-80085714D01*
X130700000Y-80123809D01*
X130776190Y-80161904D01*
X130852380Y-80161904D01*
X130928571Y-80123809D01*
X130966666Y-80085714D01*
X131004761Y-80009523D01*
X131042857Y-79857142D01*
X131042857Y-79666666D01*
X131004761Y-79514285D01*
X130966666Y-79438095D01*
X130928571Y-79400000D01*
X130852380Y-79361904D01*
X138790476Y-66913904D02*
X138333333Y-66913904D01*
X138561904Y-67713904D02*
X138561904Y-66913904D01*
X138066666Y-67713904D02*
X138066666Y-66913904D01*
X137761904Y-66913904D01*
X137685714Y-66952000D01*
X137647619Y-66990095D01*
X137609523Y-67066285D01*
X137609523Y-67180571D01*
X137647619Y-67256761D01*
X137685714Y-67294857D01*
X137761904Y-67332952D01*
X138066666Y-67332952D01*
X136847619Y-67713904D02*
X137304761Y-67713904D01*
X137076190Y-67713904D02*
X137076190Y-66913904D01*
X137152380Y-67028190D01*
X137228571Y-67104380D01*
X137304761Y-67142476D01*
X136085714Y-67713904D02*
X136542857Y-67713904D01*
X136314285Y-67713904D02*
X136314285Y-66913904D01*
X136390476Y-67028190D01*
X136466666Y-67104380D01*
X136542857Y-67142476D01*
X147990476Y-77561904D02*
X147533333Y-77561904D01*
X147761904Y-78361904D02*
X147761904Y-77561904D01*
X147266666Y-78361904D02*
X147266666Y-77561904D01*
X146961904Y-77561904D01*
X146885714Y-77600000D01*
X146847619Y-77638095D01*
X146809523Y-77714285D01*
X146809523Y-77828571D01*
X146847619Y-77904761D01*
X146885714Y-77942857D01*
X146961904Y-77980952D01*
X147266666Y-77980952D01*
X146047619Y-78361904D02*
X146504761Y-78361904D01*
X146276190Y-78361904D02*
X146276190Y-77561904D01*
X146352380Y-77676190D01*
X146428571Y-77752380D01*
X146504761Y-77790476D01*
X145742857Y-77638095D02*
X145704761Y-77600000D01*
X145628571Y-77561904D01*
X145438095Y-77561904D01*
X145361904Y-77600000D01*
X145323809Y-77638095D01*
X145285714Y-77714285D01*
X145285714Y-77790476D01*
X145323809Y-77904761D01*
X145780952Y-78361904D01*
X145285714Y-78361904D01*
X126590476Y-71361904D02*
X126133333Y-71361904D01*
X126361904Y-72161904D02*
X126361904Y-71361904D01*
X125866666Y-72161904D02*
X125866666Y-71361904D01*
X125561904Y-71361904D01*
X125485714Y-71400000D01*
X125447619Y-71438095D01*
X125409523Y-71514285D01*
X125409523Y-71628571D01*
X125447619Y-71704761D01*
X125485714Y-71742857D01*
X125561904Y-71780952D01*
X125866666Y-71780952D01*
X124647619Y-72161904D02*
X125104761Y-72161904D01*
X124876190Y-72161904D02*
X124876190Y-71361904D01*
X124952380Y-71476190D01*
X125028571Y-71552380D01*
X125104761Y-71590476D01*
X124380952Y-71361904D02*
X123885714Y-71361904D01*
X124152380Y-71666666D01*
X124038095Y-71666666D01*
X123961904Y-71704761D01*
X123923809Y-71742857D01*
X123885714Y-71819047D01*
X123885714Y-72009523D01*
X123923809Y-72085714D01*
X123961904Y-72123809D01*
X124038095Y-72161904D01*
X124266666Y-72161904D01*
X124342857Y-72123809D01*
X124380952Y-72085714D01*
M02*
