M48
INCH,TZ
T1C0.0079
T2C0.0157
T3C0.0236
T4C0.0256
T5C0.0300
T6C0.0350
T7C0.0393
T8C0.0402
T9C0.0406
T10C0.0642
T11C0.0937
T12C0.0984
T13C0.0984
T14C0.1280
%
G90
G05
T1
X54413Y-28482
X54413Y-28915
X54413Y-29348
X54846Y-28482
X54846Y-28915
X54846Y-29348
X55280Y-28482
X55280Y-28915
X55280Y-29348
T2
X42913Y-35433
X42913Y-38189
X42913Y-39764
X42913Y-42913
X44094Y-34646
X44488Y-33465
X44488Y-43307
X44488Y-44488
X45276Y-33465
X46063Y-44488
X46457Y-30709
X46535Y-33425
X46713Y-28445
X46929Y-34094
X47173Y-33711
X47638Y-44488
X48031Y-25984
X48465Y-27953
X48661Y-26378
X48976Y-29409
X48978Y-33187
X49016Y-29016
X49213Y-44488
X49213Y-44488
X49291Y-31161
X49364Y-28815
X49488Y-30276
X49606Y-24409
X49734Y-31260
X49843Y-33465
X50157Y-27717
X50354Y-38976
X50394Y-24409
X50433Y-28150
X50512Y-29459
X50512Y-33189
X50787Y-44488
X50864Y-28194
X50866Y-27451
X51024Y-27835
X51299Y-26063
X51299Y-31850
X51535Y-35433
X51575Y-34882
X51831Y-28543
X51831Y-28949
X51929Y-25906
X52362Y-39134
X52638Y-35984
X52677Y-28730
X52756Y-27165
X52992Y-28976
X53031Y-36142
X53307Y-27008
X53341Y-26473
X53425Y-28937
X53465Y-39252
X53548Y-30121
X53858Y-36142
X54016Y-28071
X54213Y-42283
X54355Y-35408
X54359Y-30472
X54370Y-30866
X54488Y-25157
X54555Y-36232
X54724Y-31102
X54764Y-35276
X54961Y-37638
X55278Y-31953
X55354Y-26417
X55433Y-37559
X55512Y-35591
X55539Y-29706
X55709Y-31811
X55748Y-30039
X55945Y-37047
X56024Y-25118
X56024Y-33701
X56181Y-25551
X56378Y-33346
X56772Y-28346
X56772Y-40157
X56831Y-31890
X56929Y-41142
X57441Y-39331
X57441Y-41772
X58031Y-30000
X58150Y-30610
X58228Y-41732
X58386Y-38307
X58386Y-38858
X58386Y-39370
X58543Y-30354
X58819Y-41772
X59646Y-31811
X59843Y-42165
X60669Y-30118
X60705Y-29648
X61220Y-31142
X61614Y-31496
X62520Y-40157
X63268Y-40630
X63273Y-36215
X63307Y-36654
X63307Y-37913
X63346Y-37087
X63780Y-39370
X63819Y-33937
X63819Y-37756
X64567Y-41339
X64961Y-36614
X64961Y-43307
X65079Y-40630
X65354Y-25984
X65354Y-26772
X65354Y-27559
X65354Y-28346
X65354Y-29134
X65354Y-29921
T5
X53189Y-34500
X53189Y-44106
X53976Y-34500
X53976Y-44106
X54764Y-34500
X54764Y-44106
X55551Y-34500
X55551Y-44106
X56339Y-34500
X56339Y-44106
X57126Y-34500
X57126Y-44106
X57913Y-34500
X57913Y-44106
X58701Y-34500
X58701Y-44106
X59488Y-34500
X59488Y-44106
X60276Y-34500
X60276Y-44106
X61063Y-34500
X61063Y-44106
X61850Y-34500
X61850Y-44106
X62638Y-34500
X62638Y-44106
X63425Y-34500
X63425Y-44106
X64213Y-34500
X64213Y-44106
X65000Y-34500
X65000Y-44106
T6
X48000Y-37248
X48000Y-38248
X48000Y-39248
X48000Y-40248
X49000Y-37748
X49000Y-38748
X49000Y-39748
X49000Y-40748
T7
X48500Y-32500
X49500Y-32500
X50500Y-32500
X51500Y-32500
X52500Y-24500
X52500Y-32500
X53500Y-24500
X53500Y-32500
X54500Y-24500
X54500Y-32500
X55500Y-24500
X55500Y-32500
X56500Y-24500
X56500Y-32500
X57500Y-24500
X57500Y-32500
X58500Y-24500
X58500Y-32500
X59500Y-24500
X59500Y-32500
X60500Y-24500
X60500Y-32500
X61500Y-24500
X61500Y-32500
X62500Y-24500
X62500Y-32500
X63500Y-24500
X63500Y-32500
T8
X43571Y-36392
X43571Y-37392
X43571Y-40608
X43571Y-41608
T9
X61886Y-27137
X61886Y-28122
X61886Y-28909
X61886Y-29893
T10
X46701Y-35951
X46701Y-42049
T11
X62953Y-25929
X62953Y-31102
T12
X47000Y-25000
X47000Y-32000
T13
X65000Y-25000
X65000Y-32000
T14
X45500Y-36750
X45500Y-41250
T3
G00X46713Y-26856
M15
G01X46437Y-26856
M16
G05
G00X46713Y-30144
M15
G01X46437Y-30144
M16
G05
T4
G00X47795Y-27624
M15
G01X47717Y-27624
M16
G05
G00X47795Y-29376
M15
G01X47717Y-29376
M16
G05
T0
M30
